<svg id="airballon" xmlns="http://www.w3.org/2000/svg" viewBox="0 0 162 240">
    <defs>
        <style>
            .cls-1 {
                fill: #fddfbc;
            }

            .cls-2 {
                fill: #019fde;
            }

            .cls-3 {
                fill: #fff;
            }

            .cls-4 {
                fill: #4c545a;
            }

            .cls-5 {
                fill: #199fde;
            }

            .cls-6 {
                fill: #ad7676;
            }

            .cls-7 {
                opacity: 0.2;
            }

            .cls-8 {
                opacity: 0.5;
                isolation: isolate;
            }

            .cls-9 {
                fill: #d19b70;
            }

            .cls-10 {
                opacity: 0.1;
            }
        </style>
    </defs>
    <g id="airballon-2" data-name="airballon">
        <g id="组_6795" data-name="组 6795">
            <g id="矩形_7959" data-name="矩形 7959">
                <path class="cls-1"
                    d="M101.67,208.37h0a1.53,1.53,0,0,1-1.18,1.82l-3.31.7h0l-.32-1.5A1.53,1.53,0,0,1,98,207.57l1.83-.39A1.54,1.54,0,0,1,101.67,208.37Z"
                    transform="translate(0 0)" />
            </g>
            <g id="路径_10614" data-name="路径 10614">
                <path class="cls-2"
                    d="M94.23,211.59c.56,1.7,4.2.29,5.16.09s-.22-4.55-.55-4.76-4.89.63-5.21,1.19A6.07,6.07,0,0,0,94.23,211.59Z"
                    transform="translate(0 0)" />
            </g>
            <g id="body">
                <path class="cls-2"
                    d="M85.47,208.18h8.47c.73,0,1.32.42,1.32.93l1.29,11.68c0,.51-.62.93-1.3.93H84.15c-.73,0-1.31-.42-1.31-.93l1.31-11.7C84.14,208.6,84.73,208.18,85.47,208.18Z"
                    transform="translate(0 0)" />
            </g>
            <g id="collar">
                <path class="cls-3" d="M94.33,208.48s.57.43-1.48,1.23-6.09,1.74-6.16.76a12.73,12.73,0,0,1,.37-2.94Z"
                    transform="translate(0 0)" />
            </g>
            <g id="face">
                <path class="cls-1"
                    d="M90,176c9.65,0,12.52,8.11,12.52,17.24,0,4.31.17,9.38-1.36,12.26C99.55,208.62,94,209,88.94,209c-10.46,0-16.7-9.49-16.7-19.3C72.24,180.54,80.39,176,90,176Z"
                    transform="translate(0 0)" />
            </g>
            <g id="eye">
                <path class="cls-4"
                    d="M98.31,197.72h0a1.22,1.22,0,0,1,1.31,1.14v0l.07,1.23a1.24,1.24,0,0,1-1.17,1.29h0a1.24,1.24,0,0,1-1.29-1.16L97.17,199A1.22,1.22,0,0,1,98.31,197.72Z"
                    transform="translate(0 0)" />
            </g>
            <g id="hair">
                <path class="cls-4"
                    d="M100.91,180.64c4.49,7.39,3.26,13.77,1.94,14.92-.74.74-.8-2.77-.8-2.77s-.2-4.19-1.14-6.2c-.79,4.16-2.28,9-12.88,11.45-2.06.55,0,4.65,3,9.63S86.53,219.13,79.83,219c-4.31-.12-7.74-2.77-7.51-5.48.15-1.85,1.88-3.78.32-7.76-1.64-4.16-4.82-15.59,0-22.24A17.32,17.32,0,0,1,81.11,177C82.9,176.29,96.22,172.94,100.91,180.64Z"
                    transform="translate(0 0)" />
            </g>
            <g id="ear">
                <path class="cls-1"
                    d="M87.38,199.43a1.34,1.34,0,0,0-1.57.56c-.57.93-.32,3.49,1.23,4.93a2.75,2.75,0,0,0,2.95.79s-1.36-5.66-1.81-5.92A3.84,3.84,0,0,0,87.38,199.43Z"
                    transform="translate(0 0)" />
            </g>
            <g id="bang">
                <path class="cls-4"
                    d="M86.77,193.86s-.47,8.24,2.31,13.32,5.53,5.27,5.53,5.27-7.18-6-4.6-14.86-2.42-5.18-2.42-5.18Z"
                    transform="translate(0 0)" />
            </g>
            <g id="路径_10100" data-name="路径 10100">
                <path class="cls-2"
                    d="M95.18,185.05A1.23,1.23,0,0,0,94,186.36h0l.15,2.15-2.14.14a1.24,1.24,0,0,0,.08,2.47h.08l3.28-.23a1.39,1.39,0,0,0,1.23-1.4l-.23-3.31A1.22,1.22,0,0,0,95.18,185.05Z"
                    transform="translate(0 0)" />
            </g>
            <g id="路径_10101" data-name="路径 10101">
                <path class="cls-2"
                    d="M98.51,190.61a1.23,1.23,0,1,0-.33,2.44A1.23,1.23,0,0,0,99.56,192h0A1.23,1.23,0,0,0,98.51,190.61Z"
                    transform="translate(0 0)" />
            </g>
        </g>
        <g id="路径_7066" data-name="路径 7066">
            <path class="cls-5"
                d="M0,83.21c0,45.82,38.38,83,79.25,83S162,129,162,83.21,120.12.24,79.25.24,0,37.4,0,83.21Z"
                transform="translate(0 0)" />
        </g>
        <g id="直线_2" data-name="直线 2">
            <rect class="cls-6" x="57.3" y="170.24" width="2" height="42.28"
                transform="translate(-9.26 3.07) rotate(-2.79)" />
        </g>
        <g id="直线_3" data-name="直线 3">
            <rect class="cls-6" x="84.53" y="190.38" width="42.28" height="2"
                transform="translate(-90.63 287.58) rotate(-87.2)" />
        </g>
        <g id="矩形_6435" data-name="矩形 6435">
            <path class="cls-5"
                d="M88.94,175.48H77a3.2,3.2,0,0,1-3.2-3.2h0a3.2,3.2,0,0,1,3.2-3.2H88.94a3.21,3.21,0,0,1,3.21,3.2h0A3.21,3.21,0,0,1,88.94,175.48Z"
                transform="translate(0 0)" />
        </g>
        <g id="组_3985" data-name="组 3985" class="cls-7">
            <g id="路径_7084" data-name="路径 7084">
                <path
                    d="M79.5,0c1,0,1.94,0,2.92.07C42.76,1.78,6.29,38.23,6.29,83s36.48,81.18,76.13,82.89c-1,0-2,.07-2.92.07-40.75,0-79-37.15-79-83S38.75,0,79.5,0Z"
                    transform="translate(0 0)" />
            </g>
        </g>
        <g id="组_3986" data-name="组 3986" class="cls-7">
            <g id="路径_7085" data-name="路径 7085">
                <path class="cls-3"
                    d="M157.37,83.21C157.37,38,116.79,1.31,76.59.27c.58,0,1.16,0,1.75,0,40.75,0,82.52,37.16,82.52,83s-41.77,83-82.52,83c-.59,0-1.17,0-1.75,0C116.78,165.1,157.37,128.37,157.37,83.21Z"
                    transform="translate(0 0)" />
            </g>
        </g>
        <g id="矩形_6436" data-name="矩形 6436">
            <rect class="cls-5" x="55.76" y="154.52" width="52.69" height="17.18" rx="1" />
        </g>
        <g id="路径_7086" data-name="路径 7086" class="cls-8">
            <path class="cls-3" d="M108.44,6.29s62.59,71.53,0,153.85l-20.66-.08s57.05-68,2.61-158.94l10.19,2.32Z"
                transform="translate(0 0)" />
        </g>
        <g id="路径_7087" data-name="路径 7087" class="cls-8">
            <path class="cls-3" d="M54,5.19S-6.7,77.37,55.88,159.69l18.81.37S17.63,91.48,72.07.54l-10.18,2Z"
                transform="translate(0 0)" />
        </g>
        <g id="组_4008" data-name="组 4008" class="cls-7">
            <g id="路径_7153" data-name="路径 7153">
                <path class="cls-3" d="M2.72,18.41a.2.2,0,0,1,0,.11v0A.2.2,0,0,1,2.72,18.41Z"
                    transform="translate(0 0)" />
            </g>
            <g id="路径_7154" data-name="路径 7154">
                <path class="cls-3" d="M2.86,17.88a.6.6,0,0,1,0,.19A.6.6,0,0,1,2.86,17.88Z"
                    transform="translate(0 0)" />
            </g>
            <g id="路径_7155" data-name="路径 7155">
                <path class="cls-3" d="M1.75,18.15Z" transform="translate(0 0)" />
            </g>
        </g>
        <g id="矩形_6434" data-name="矩形 6434">
            <path class="cls-9"
                d="M96.6,240H67.49a10,10,0,0,1-10-10V211.75a1,1,0,0,1,1-1H105.6a1,1,0,0,1,1,1V230A10,10,0,0,1,96.6,240Z"
                transform="translate(0 0)" />
        </g>
        <g id="减去_42" data-name="减去 42" class="cls-10">
            <path
                d="M58.49,210.75h5a1,1,0,0,0-1,1V230a10,10,0,0,0,10,10h-5a10,10,0,0,1-10-10V211.75A1,1,0,0,1,58.49,210.75Z"
                transform="translate(0 0)" />
        </g>
    </g>
</svg>