<svg id="cat" xmlns="http://www.w3.org/2000/svg" xmlns:xlink="http://www.w3.org/1999/xlink" viewBox="0 0 66.88 45.48"><defs><style>.cls-1{fill:none;}.cls-2{fill:#a3d8f2;}.cls-3{clip-path:url(#clip-path);}.cls-4{opacity:0.7;}.cls-5{fill:#fff;}.cls-6{fill:#4c545a;}.cls-7{fill:#707070;}.cls-8{clip-path:url(#clip-path-2);}.cls-9{fill:#019fde;}.cls-10{fill:#804b33;}.cls-11{fill:#6cce9d;}</style><clipPath id="clip-path" transform="translate(0.03 -0.21)"><rect class="cls-1" width="74" height="35"/></clipPath><clipPath id="clip-path-2" transform="translate(0.03 -0.21)"><path class="cls-1" d="M63.09,34.62s1.7-5.42-2.47-9.06,8.58-.35,8.58-.35l.9,6.51Z"/></clipPath></defs><g id="cat_hands" data-name="cat hands"><g id="e9o9610lnxfc85"><path id="e9o9610lnxfc86" class="cls-2" d="M32.09,34.7l1.22-5a1.78,1.78,0,0,1,2-1.27l1.68.42A3.46,3.46,0,0,1,39.36,33l-.81,3.36a3.37,3.37,0,0,1-4,2.53h0A3.47,3.47,0,0,1,32.09,34.7Z" transform="translate(0.03 -0.21)"/><path id="e9o9610lnxfc87" class="cls-2" d="M10.43,36.17,9,29.17H9L14.08,28a1.77,1.77,0,0,1,2.07,1.36h0l1.08,5.26a3.64,3.64,0,0,1-2.67,4.24h0A3.54,3.54,0,0,1,10.43,36.17Z" transform="translate(0.03 -0.21)"/></g></g><g class="cls-3"><g id="蒙版组_272" data-name="蒙版组 272"><g id="ycat"><g id="cat-2" data-name="cat"><g id="head"><g id="路径_8731" data-name="路径 8731"><path id="路径_11530" data-name="路径 11530" class="cls-2" d="M3.88,21.1S-3.43,8.7,1.93,5.16,15.32,8,15.85,8.49c0,0,8.37-4.26,16.62-1.57.44.24,7.7-6.75,13.35-4.78s0,15.7,0,15.7,1,8.85,4.36,10.77c.25.44-2.73,1.93-3.72,1.61a16.6,16.6,0,0,0,3,.76s-11.42,9.4-23.81,9.3S5.88,35.76,4.56,34.79A17.74,17.74,0,0,0,7,33.62C7.21,33.5,2.72,33,.86,31c-.6-.6,4.71-4,4-7.56C4.5,21.45,3.88,21.1,3.88,21.1Z" transform="translate(0.03 -0.21)"/></g><g id="路径_8732" data-name="路径 8732" class="cls-4"><path id="路径_11531" data-name="路径 11531" class="cls-5" d="M6.68,17s2.39-4.81,5.18-5.8c0-.23-6.12-4-7.75-2.3S6.68,17,6.68,17Z" transform="translate(0.03 -0.21)"/></g><g id="路径_8733" data-name="路径 8733" class="cls-4"><path id="路径_11532" data-name="路径 11532" class="cls-5" d="M36.16,9.8s5.17,1.53,6.64,4.11c.19,0,2.86-6.73.92-8S36.16,9.8,36.16,9.8Z" transform="translate(0.03 -0.21)"/></g><g id="路径_8736" data-name="路径 8736"><g id="路径_9320" data-name="路径 9320"><path id="路径_11533" data-name="路径 11533" class="cls-6" d="M26.81,25.91H26.1a6.84,6.84,0,0,1-1-.35,3.09,3.09,0,0,1-3.65-.41.89.89,0,0,1,0-1.25.88.88,0,0,1,1.25,0h0a1.35,1.35,0,0,0,1.77,0,.83.83,0,0,1,.85-.2.79.79,0,0,1,.34.2c.15.1,1.22.7,1.77.1a.89.89,0,0,1,1.24-.14A.83.83,0,0,1,28.87,25a.05.05,0,0,1,0,0h0a2.35,2.35,0,0,1-2,.85Z" transform="translate(0.03 -0.21)"/></g></g><g id="椭圆_2127" data-name="椭圆 2127"><circle id="椭圆_2602" data-name="椭圆 2602" class="cls-6" cx="13.44" cy="18.8" r="1.95"/></g><g id="椭圆_2128" data-name="椭圆 2128"><circle id="椭圆_2603" data-name="椭圆 2603" class="cls-6" cx="34.99" cy="18.8" r="1.95"/></g><g id="组_4894" data-name="组 4894"><g id="路径_9000" data-name="路径 9000"><path id="路径_11534" data-name="路径 11534" class="cls-7" d="M.55,30.8A.53.53,0,0,1,0,30.29a.52.52,0,0,1,.34-.52A9.58,9.58,0,0,1,5.65,29a.53.53,0,0,1,.5.56.52.52,0,0,1-.56.5h-.1a8.32,8.32,0,0,0-4.74.69.46.46,0,0,1-.2.05Z" transform="translate(0.03 -0.21)"/></g><g id="路径_9001" data-name="路径 9001"><path id="路径_11535" data-name="路径 11535" class="cls-7" d="M51.59,30.68a.74.74,0,0,1-.21,0,8.51,8.51,0,0,0-4.75-.62.54.54,0,0,1-.6-.45.53.53,0,0,1,.45-.6,9.58,9.58,0,0,1,5.31.69.54.54,0,0,1,.31.69.53.53,0,0,1-.52.34Z" transform="translate(0.03 -0.21)"/></g><g id="路径_9002" data-name="路径 9002"><path id="路径_11536" data-name="路径 11536" class="cls-7" d="M1.42,34.22A.56.56,0,0,1,1,34a.54.54,0,0,1,.12-.74h0a9.63,9.63,0,0,1,5.06-1.85.51.51,0,0,1,.57.45v0a.55.55,0,0,1-.5.59,8.63,8.63,0,0,0-4.52,1.66A.51.51,0,0,1,1.42,34.22Z" transform="translate(0.03 -0.21)"/></g><g id="路径_9003" data-name="路径 9003"><path id="路径_11537" data-name="路径 11537" class="cls-7" d="M50.71,34.22a.46.46,0,0,1-.3-.11,8.59,8.59,0,0,0-4.52-1.66.58.58,0,0,1-.5-.59.52.52,0,0,1,.55-.48h0a9.55,9.55,0,0,1,5.11,1.86.52.52,0,0,1,.11.74h0a.49.49,0,0,1-.5.23Z" transform="translate(0.03 -0.21)"/></g></g></g><g id="组_7301" data-name="组 7301"><path id="路径_12276" data-name="路径 12276" class="cls-2" d="M50.24,41.77s1.74-4.25,5.09-6.36a15.63,15.63,0,0,1,6.84-2.75c2-.43,4.44-1.48,4.67-3.94s-2.27-4.31-6.42-3.31S49.57,33.28,48.53,41.89,50.24,41.77,50.24,41.77Z" transform="translate(0.03 -0.21)"/><g class="cls-8"><g id="蒙版组_271" data-name="蒙版组 271"><path id="路径_12278" data-name="路径 12278" class="cls-9" d="M50.24,41.77s1.55-4.69,4.53-7,5.72-1.91,7.39-2.14c2-.43,4.45-1.48,4.67-3.94s-2.26-4.31-6.42-3.31S49.57,33.28,48.52,41.89,50.24,41.77,50.24,41.77Z" transform="translate(0.03 -0.21)"/></g></g></g></g><g id="leaf"><g id="路径_10600" data-name="路径 10600"><path id="路径_11538" data-name="路径 11538" class="cls-10" d="M24.42,8.08a.71.71,0,0,1-.71-.62c-.11-.83-.64-3.15-1.77-3.78a.7.7,0,0,1-.3-.93v0a.76.76,0,0,1,1-.25c1.91,1.06,2.44,4.45,2.49,4.82a.72.72,0,0,1-.62.8Z" transform="translate(0.03 -0.21)"/></g><g id="路径_10601" data-name="路径 10601"><path id="路径_11539" data-name="路径 11539" class="cls-11" d="M17.46,1.85C16.68,3,19.67,5.5,22,4.7s0-3.38-.94-3.79a3.22,3.22,0,0,0-3.63.94Z" transform="translate(0.03 -0.21)"/></g><g id="路径_10599" data-name="路径 10599"><path id="路径_11540" data-name="路径 11540" class="cls-11" d="M28.42,1.06c.92,1.06-1.77,3.9-4.18,3.4s-.48-3.35.46-3.88a3.26,3.26,0,0,1,3.72.48Z" transform="translate(0.03 -0.21)"/></g></g></g></g></g></svg>