<svg xmlns="http://www.w3.org/2000/svg" xmlns:xlink="http://www.w3.org/1999/xlink" width="300" height="300" viewBox="0 0 300 300">
    <defs>
        <path id="a" d="M1.552.494h107.734v102.441H1.552z"/>
        <path id="c" d="M0 2.062h62.2v169.367H0z"/>
    </defs>
    <g fill="none" fill-rule="evenodd">
        <path fill="#009FDE" stroke="#979797" d="M.5.5h299v299H.5z"/>
        <path fill="#FFF" fill-opacity=".6" d="M146.576 152.37c0 28.836-7.215 56.011-19.935 79.823-.46.713-.886 1.453-1.331 2.18.445-.727.872-1.466 1.33-2.18 22.145-34.389 60.761-57.204 104.608-57.204-30.807 0-59.725-8.233-84.672-22.62"/>
        <g transform="translate(125.09 72.054)">
            <mask id="b" fill="#fff">
                <use xlink:href="#a"/>
            </mask>
            <path fill="#FFF" fill-opacity=".8" d="M106.343 57.7h-.183C62.311 57.7 23.695 34.882 1.552.494c12.72 23.811 19.933 50.987 19.933 79.821 24.947 14.388 53.865 22.62 84.675 22.62h.183a87.848 87.848 0 0 0 2.944-22.62 87.84 87.84 0 0 0-2.945-22.615" mask="url(#b)"/>
        </g>
        <g transform="translate(84.375 65.625)">
            <mask id="d" fill="#fff">
                <use xlink:href="#c"/>
            </mask>
            <path fill="#FFF" d="M39.295 2.062a127.809 127.809 0 0 0 2.97 4.86C54.989 30.735 62.2 57.91 62.2 86.745c0 28.837-7.212 56.01-19.934 79.824a129.519 129.519 0 0 0-2.97 4.86c-15.108-4.089-28.59-12.105-39.29-22.89 0 0 0-.004-.006-.004 10.476-18.213 16.474-39.313 16.474-61.79C16.474 64.27 10.476 43.17 0 24.958c.006 0 .006-.006.006-.006 10.7-10.785 24.182-18.802 39.29-22.89" mask="url(#d)"/>
        </g>
    </g>
</svg>
