<svg id="POPULAR" xmlns="http://www.w3.org/2000/svg" viewBox="0 0 32 32"><defs><style>.cls-1{fill:#019fde;}.cls-2{fill:#fff;}</style></defs><circle id="BG" class="cls-1" cx="16" cy="16" r="16"/><g id="fire"><g id="组_5352" data-name="组 5352"><path id="路径_8768" data-name="路径 8768" class="cls-2" d="M24,17.81a12.6,12.6,0,0,0-3-6.9c-1.25-1.62-2.29-3-2.29-5.09a.44.44,0,0,0-.24-.38.43.43,0,0,0-.46,0,11.22,11.22,0,0,0-4.16,6A19.31,19.31,0,0,0,13.35,16c-1.77-.38-2.22-3.08-2.23-3.11a.43.43,0,0,0-.5-.37h-.13c-.1,0-2.32,1.17-2.45,5.7v.45a8,8,0,0,0,8,8h0a8,8,0,0,0,8-8Zm-8,7.93a2.75,2.75,0,0,1-2.65-2.84v-.17a3.46,3.46,0,0,1,.28-1.42,1.59,1.59,0,0,0,1.48,1.08.45.45,0,0,0,.45-.44,8,8,0,0,1,.17-2,4.22,4.22,0,0,1,.88-1.69,5.6,5.6,0,0,0,.89,1.67,5,5,0,0,1,1.16,2.76v.23A2.77,2.77,0,0,1,16,25.74Z"/></g></g></svg>