<svg id="YOU_MAY_LIKE" data-name="YOU MAY LIKE" xmlns="http://www.w3.org/2000/svg" viewBox="0 0 32 32"><defs><style>.cls-1{fill:#ff5b73;}.cls-2{fill:none;}.cls-3{fill:#fff;}</style></defs><g id="YOU_MAY_LIKE-2" data-name="YOU MAY LIKE"><circle id="椭圆_2086" data-name="椭圆 2086" class="cls-1" cx="16" cy="16" r="16"/></g><g id="fav_fill" data-name="fav fill"><rect id="矩形_4404" data-name="矩形 4404" class="cls-2" x="9" y="4" width="14" height="15"/><path id="路径_3413" data-name="路径 3413" class="cls-3" d="M20.33,6.17A3.71,3.71,0,0,0,16,7.48a3.71,3.71,0,0,0-4.33-1.31,3.54,3.54,0,0,0-2.08,4.42c1.06,3.95,5.48,6.2,6.11,6.52h.07a.81.81,0,0,0,.22,0h0a.74.74,0,0,0,.21,0h.08c.63-.31,5-2.57,6.1-6.52a3.48,3.48,0,0,0-2.05-4.42Z"/></g><g id="fav_fill-2" data-name="fav fill-2"><rect id="矩形_4404-2" data-name="矩形 4404-2" class="cls-2" x="7.15" y="18.65" width="7.08" height="7.08" transform="translate(-8.1 6.27) rotate(-24)"/><path id="路径_3413-2" data-name="路径 3413-2" class="cls-3" d="M11.57,18.84a1.87,1.87,0,0,0-1.7,1.48,1.89,1.89,0,0,0-2.25.28,1.76,1.76,0,0,0,0,2.46c1.29,1.6,3.77,1.72,4.12,1.77h.12l.09-.07h0a6.09,6.09,0,0,0,1.47-4.22,1.77,1.77,0,0,0-1.84-1.7Z"/></g><g id="fav_fill-3" data-name="fav fill-3"><rect id="矩形_4404-3" data-name="矩形 4404-3" class="cls-2" x="19.54" y="16" width="5.31" height="5.31" transform="translate(-3.65 31.8) rotate(-67)"/><path id="路径_3413-3" data-name="路径 3413-3" class="cls-3" d="M24.53,17.4a1.42,1.42,0,0,0-1.72-.19,1.44,1.44,0,0,0-1.33-1.11,1.35,1.35,0,0,0-1.4,1.26,4.5,4.5,0,0,0,1.18,3.2h0l.07.05h.08a4.51,4.51,0,0,0,3.17-1.34A1.32,1.32,0,0,0,24.53,17.4Z"/></g></svg>