<svg id="fundraise" xmlns="http://www.w3.org/2000/svg" viewBox="0 0 32 32"><defs><style>.cls-1{fill:#fff;}.cls-2{fill:#fd5b73;}</style></defs><path id="bg" class="cls-1" d="M16,2.06h0A13.94,13.94,0,0,1,29.94,16h0A13.94,13.94,0,0,1,16,29.94h0A13.94,13.94,0,0,1,2.06,16h0A13.94,13.94,0,0,1,16,2.06Z"/><path id="pig" class="cls-2" d="M16,0A16,16,0,1,0,32,16,16,16,0,0,0,16,0Zm8.3,26.48a.86.86,0,0,1-.41.1h-3a1,1,0,0,1-.3,0,3.39,3.39,0,0,1-1.43-1.25,6.22,6.22,0,0,1-3.5,0,7.85,7.85,0,0,1-.51,1,.92.92,0,0,1-.74.39H11.44a.79.79,0,0,1-.4-.1c-.89-.44-1-1.66-1.16-3.11a13.56,13.56,0,0,1-1.65-2.46c-.81-.08-2.15-.36-2.59-1.4a11.68,11.68,0,0,1-.1-4.25c0-.4.33-1.53,2.46-1.72l.12-.2a5.8,5.8,0,0,1,2-2l.18-.11a23.6,23.6,0,0,1,0-2.66V8.5a1,1,0,0,1,.61-.8c.23-.14.89-.4,3.24.73a6.22,6.22,0,0,0-.59,1.35.45.45,0,0,1-.07.28c-.06.25-.1.5-.14.75a6.3,6.3,0,0,0-.05.75A6.22,6.22,0,0,0,25.6,13l-.05.24a8.1,8.1,0,0,1,.61,1.34,9.71,9.71,0,0,1-.89,7.91C25.48,23.57,25.68,25.78,24.3,26.48ZM19.56,6.22a5.34,5.34,0,1,1-5.34,5.34h0A5.34,5.34,0,0,1,19.56,6.22Zm6.13,6.32v0Z"/><path id="eye" class="cls-2" d="M10.66,16h0a.9.9,0,0,0,1.79.09V16a.9.9,0,0,0-1.79,0Z"/><path id="money" class="cls-2" d="M19.31,12.12s.6,0,.6.54a.52.52,0,0,1-.5.54h0A.53.53,0,0,1,19,13a.54.54,0,0,0-.74-.12h0a.54.54,0,0,0-.11.76,1.66,1.66,0,0,0,.75.56v.36a.55.55,0,0,0,.62.47.53.53,0,0,0,.46-.47v-.31a1.62,1.62,0,0,0-.35-3.2s-.68.06-.68-.54a.54.54,0,0,1,.53-.54.52.52,0,0,1,.44.22.54.54,0,0,0,.76.11.53.53,0,0,0,.12-.74h0A1.55,1.55,0,0,0,20,9V8.62a.55.55,0,0,0-.62-.47.53.53,0,0,0-.46.47h0V9a1.61,1.61,0,0,0,.48,3.14Z"/></svg>