<svg id="FREE" xmlns="http://www.w3.org/2000/svg" viewBox="0 0 32 32"><defs><style>.cls-1{fill:#019fde;}.cls-2{fill:#fff;}</style></defs><g id="BG"><g id="组_5355" data-name="组 5355"><circle id="椭圆_2086" data-name="椭圆 2086" class="cls-1" cx="16" cy="16" r="16"/></g></g><g id="giftbox"><path id="路径_8950" data-name="路径 8950" class="cls-2" d="M24.7,9.9H23.24a2.15,2.15,0,0,0,.35-1,2.57,2.57,0,0,0-1.52-2.66,2.54,2.54,0,0,0-2.79.45L17.44,8.35a1.93,1.93,0,0,0-2.74-.14l-.15.14L12.71,6.68a2.52,2.52,0,0,0-2.78-.45A2.58,2.58,0,0,0,8.4,8.89a2.28,2.28,0,0,0,.36,1H7.3A1.31,1.31,0,0,0,6,11.21v2a.66.66,0,0,0,.65.66h18.7a.66.66,0,0,0,.65-.66v-2A1.31,1.31,0,0,0,24.7,9.9ZM14,9.68V9.9H11A1.29,1.29,0,0,1,9.69,8.6a1.28,1.28,0,0,1,.74-1.16,1.25,1.25,0,0,1,1.4.21l2.21,2Zm8.26-1A1.32,1.32,0,0,1,21,9.9H18V9.66l2.17-2a1.34,1.34,0,0,1,1.24-.32A1.28,1.28,0,0,1,22.3,8.72Z" transform="translate(0 0)"/><path id="路径_8951" data-name="路径 8951" class="cls-2" d="M7.31,15.07v9.62A1.31,1.31,0,0,0,8.62,26h6.13V15.07Z" transform="translate(0 0)"/><path id="路径_8952" data-name="路径 8952" class="cls-2" d="M17.25,15.07V26h6.13a1.31,1.31,0,0,0,1.31-1.31h0V15.07Z" transform="translate(0 0)"/></g></svg>