<svg id="OFFLINE" xmlns="http://www.w3.org/2000/svg" viewBox="0 0 32 32"><defs><style>.cls-1{fill:#38c1a1;}.cls-2{fill:#fff;}</style></defs><circle id="BG" class="cls-1" cx="16" cy="16" r="16"/><g id="presentation-2"><path id="路径_8778" data-name="路径 8778" class="cls-2" d="M24.71,6H15.28a2.06,2.06,0,0,0-2,2.12v5l1.55.82.77-1.65a1.82,1.82,0,0,1,2.4-1l.13.06A2.09,2.09,0,0,1,19,14L17.64,17c-.5.89-.1,1.16-.1,1.16h.9L16,25.22a.66.66,0,0,0,.33.87l.05,0a.54.54,0,0,0,.21.05.64.64,0,0,0,.59-.45l2.54-7.5h.45l2.57,7.51a.64.64,0,0,0,.59.45.68.68,0,0,0,.63-.71,1.18,1.18,0,0,0,0-.2l-2.41-7h3.17a2.06,2.06,0,0,0,2-2.08v-8a2.05,2.05,0,0,0-2-2.13h0Zm-1.35,9.3H20.54a.69.69,0,0,1-.63-.72.67.67,0,0,1,.63-.63h2.82a.68.68,0,0,1,.61.75A.7.7,0,0,1,23.36,15.29Zm0-2.53H20.54a.68.68,0,0,1-.63-.72h0a.67.67,0,0,1,.63-.63h2.82a.66.66,0,0,1,.63.7v0A.67.67,0,0,1,23.36,12.76Zm0-2.53H16.62a.68.68,0,1,1,0-1.35h6.74a.68.68,0,1,1,0,1.35Z"/><path id="路径_8779" data-name="路径 8779" class="cls-2" d="M16.33,17.56a1.53,1.53,0,0,0,0-1l1.56-3.11a.64.64,0,0,0-.23-.87l-.06,0a.62.62,0,0,0-.83.29h0l-1.33,2.68-3-1.48a5.46,5.46,0,0,0-2.67-.9H9.22a2.74,2.74,0,1,0-2.7-2.77,2.73,2.73,0,0,0,2.7,2.77,4.06,4.06,0,0,0-2.81,1.17A4,4,0,0,0,5.29,17.2v2A2,2,0,0,0,6.64,21.1v4.4a.63.63,0,0,0,.62.63h4.05a.63.63,0,0,0,.63-.63h0V17.55l2,1a1.7,1.7,0,0,0,1.43.06,1.74,1.74,0,0,0,1-1Z"/></g></svg>