<svg id="EVENT" xmlns="http://www.w3.org/2000/svg" viewBox="0 0 32 32"><defs><style>.cls-1{fill:#fd5b73;}.cls-2{fill:none;}.cls-3{fill:#fff;}</style></defs><circle id="椭圆_2085" data-name="椭圆 2085" class="cls-1" cx="16" cy="16" r="16"/><g id="celebrate"><rect id="矩形_4973" data-name="矩形 4973" class="cls-2" x="5" y="5" width="22" height="22"/><path id="路径_4868" data-name="路径 4868" class="cls-3" d="M16,13.51a.86.86,0,0,0,.6-.16,8.88,8.88,0,0,0,2.5-3.52,7.13,7.13,0,0,0,.29-3.52.88.88,0,0,0-1-.76.89.89,0,0,0-.76,1v0a5.54,5.54,0,0,1-.19,2.65,7.42,7.42,0,0,1-2,2.74.87.87,0,0,0-.08,1.24.87.87,0,0,0,.64.3Z"/><path id="路径_4869" data-name="路径 4869" class="cls-3" d="M25.56,16.14a15.14,15.14,0,0,0-2.13,0,6.18,6.18,0,0,0-2.3.72.88.88,0,0,0-.24,1.23.89.89,0,0,0,1.08.32,4.38,4.38,0,0,1,1.63-.51,9.22,9.22,0,0,1,1.82,0,.89.89,0,0,0,.14-1.77Z"/><path id="路径_4870" data-name="路径 4870" class="cls-3" d="M12.07,8.12a1.3,1.3,0,0,0,1.2,1.28h.23a1.3,1.3,0,0,0,1.2-1.28h0A1.32,1.32,0,0,0,13.38,6.8a1.33,1.33,0,0,0-1.33,1.32h0Zm1.29-.69v.64h0Z"/><path id="路径_4871" data-name="路径 4871" class="cls-3" d="M21.29,13.4a.87.87,0,0,0,.79.88h.18a.88.88,0,0,0,.79-.88v0h0a.88.88,0,1,0-1.76,0h0Zm.88-.46v.42h0Z"/><path id="路径_4872" data-name="路径 4872" class="cls-3" d="M23.15,10.34a.86.86,0,0,0,1.24,0l.34-.33.33.33A.88.88,0,0,0,26.3,9.09L26,8.76l.33-.34a.88.88,0,0,0-1.24-1.23l-.34.33-.33-.33a.88.88,0,0,0-1.19-.36A.89.89,0,0,0,22.84,8a1.27,1.27,0,0,0,.21.25l.14.14.34.34-.34.33a.88.88,0,0,0,0,1.24Z"/></g><g id="party-2"><path id="路径_8787" data-name="路径 8787" class="cls-3" d="M10.1,15.3,8.39,19.87h0A8.2,8.2,0,0,0,11,24.13l2.14-.81A9.37,9.37,0,0,1,10.1,15.3Z"/><path id="路径_8788" data-name="路径 8788" class="cls-3" d="M7.81,21.41,6.5,24.94a.53.53,0,0,0,.31.67h0a.55.55,0,0,0,.36,0l2.77-1A9.43,9.43,0,0,1,7.81,21.41Z"/><path id="路径_8789" data-name="路径 8789" class="cls-3" d="M13.76,14.88l-1.95-2a8.37,8.37,0,0,0,2.49,10l2.08-.74A9.42,9.42,0,0,1,13.76,14.88Z"/><path id="路径_8790" data-name="路径 8790" class="cls-3" d="M14.78,15.89a8.4,8.4,0,0,0,2.65,5.83h0L19,21.14a.52.52,0,0,0,.31-.67.62.62,0,0,0-.12-.19Z"/></g></svg>