<svg id="_andscape" data-name=";andscape" xmlns="http://www.w3.org/2000/svg" xmlns:xlink="http://www.w3.org/1999/xlink" viewBox="0 0 3000 320"><defs><style>.cls-1{fill:url(#linear-gradient);}.cls-2{fill:url(#linear-gradient-2);}.cls-3{fill:url(#linear-gradient-3);}.cls-4{fill:#ff7b8e;}.cls-5{fill:#707070;}.cls-6{fill:#ff5b73;}.cls-7{fill:#4c545a;}.cls-8{fill:#8ebfd7;}.cls-9{fill:#94c3db;}.cls-10{fill:#a1cee4;}.cls-11{fill:#9dcbe1;}.cls-12{fill:#a2cfe5;}.cls-13{fill:#a4d1e6;}</style><linearGradient id="linear-gradient" x1="1440.02" y1="215.4" x2="1440.02" y2="214.62" gradientTransform="matrix(3000, 0, 0, -265.42, -4318560, 57169.44)" gradientUnits="userSpaceOnUse"><stop offset="0" stop-color="#c1e7ff"/><stop offset="1" stop-color="#d8eef2"/></linearGradient><linearGradient id="linear-gradient-2" x1="1440.02" y1="215.46" x2="1440.02" y2="214.46" gradientTransform="matrix(3000, 0, 0, -227, -4318560, 48978.79)" gradientUnits="userSpaceOnUse"><stop offset="0" stop-color="#8dbed6"/><stop offset="1" stop-color="#fff"/></linearGradient><linearGradient id="linear-gradient-3" x1="1440.02" y1="215.52" x2="1440.02" y2="214.52" gradientTransform="matrix(3000, 0, 0, -203.14, -4318560, 43897.72)" gradientUnits="userSpaceOnUse"><stop offset="0" stop-color="#e8f8ff"/><stop offset="1" stop-color="#fff"/></linearGradient></defs><g id="bg"><g id="组_4560" data-name="组 4560"><path id="路径_7313" data-name="路径 7313" class="cls-1" d="M0,48.86S68,4,151.4.19,391.07,50.82,456.13,48.86,591.51,19.33,639,24.35,778.42,66.56,842.63,66,1087.2,55.72,1131.09,49.4s112.1,2.09,176.88,37.47c44,24,127.65,51.69,223.22,8.66S1730.9,46.8,1797.28,54.28c30.33,3.41,136.1,7.76,255.62,25C2169.06,96,2180.92,43.1,2331.75,50s187.59,88.54,380.47,22.8c102.33-29.62,205.17,15.73,287.78-24V265.41H0Z" transform="translate(0 0)"/><path id="路径_7314" data-name="路径 7314" class="cls-2" d="M0,104.75s186.52-80,403.35,0c46.37,17.1,60,40.3,114.53,36.25S623.11,76.77,726.35,89.9c18.21,2.32,87.84,18.16,135.24,14.85s62.71-28.1,147.87-4.47,148.92,56.29,189.68,62.71c43.61,8.35,110.26-9.07,181.22-24.42,14.69-3.18,30.75,12.54,51,13.55,11.08,0,28.29-9,45-4.32,33.08,9.31,65.38,33,115.25,26.56,180-23.24,303.58-52.67,434.87-44.8s125.65,37,209.83,33.43S2382,128.33,2465,174.36s2.31,72.2,130.32,43.42c57.82-13,105.48-30,145.13-51.18,49.64-26.46,99.77,5.77,148.54-7.3,44.9-13.35,70.09-34.82,111-54.57V296.21H0Z" transform="translate(0 0)"/><path id="路径_7665" data-name="路径 7665" class="cls-3" d="M0,189.81S270.17,113,409.45,117s192.79,43.11,295.9,36.28,208.45-18.63,289.4,7.87c83.43,27.32,140.52-19,220.73-6s121.4,58,230,54.22,158.34-76.93,274.63-79.93c68.44-1.76,75.57,23,131,29.43s61.94-6,104.26,0c75.62,10.75,69,39.27,190.27,48.47,185.51,14.07,233.46-29.86,360-26s182.94,65,292.93,51.8c79.12-9.49,147-29.33,201.45-43.39V320H0Z" transform="translate(0 0)"/><g id="组_4247" data-name="组 4247"><path id="路径_7310" data-name="路径 7310" class="cls-4" d="M290.55,142.47c-2.43-.22-3.42,12.21,0,12.21S293.24,142.72,290.55,142.47Z" transform="translate(0 0)"/><rect id="矩形_6561" data-name="矩形 6561" class="cls-5" x="290.35" y="150.02" width="0.4" height="6.82"/></g><g id="组_4264" data-name="组 4264"><path id="路径_7310-2" data-name="路径 7310-2" class="cls-6" d="M271.51,154.5c-2.44-.22-3.42,12.21,0,12.21S274.19,154.75,271.51,154.5Z" transform="translate(0 0)"/><rect id="矩形_6561-2" data-name="矩形 6561-2" class="cls-5" x="271.3" y="162.05" width="0.4" height="6.82"/></g><g id="组_4246" data-name="组 4246"><path id="路径_7311" data-name="路径 7311" class="cls-4" d="M225.3,170.67c-4.05-.51-9.69,18.37,0,18.37S229.39,171.18,225.3,170.67Z" transform="translate(0 0)"/><rect id="矩形_6562" data-name="矩形 6562" class="cls-7" x="224.96" y="183.69" width="0.47" height="10.59"/></g><g id="组_4253" data-name="组 4253"><path id="路径_7311-2" data-name="路径 7311-2" class="cls-4" d="M63.92,170.15c-6.64-.83-15.89,30.1,0,30.1S70.61,171,63.92,170.15Z" transform="translate(0 0)"/><rect id="矩形_6562-2" data-name="矩形 6562-2" class="cls-5" x="63.35" y="191.49" width="0.78" height="17.35"/></g><g id="组_4248" data-name="组 4248"><path id="路径_7312" data-name="路径 7312" class="cls-6" d="M140.25,132.91c4.65-.43,6.53,23.34,0,23.34S135.11,133.37,140.25,132.91Z" transform="translate(0 0)"/><rect id="矩形_6563" data-name="矩形 6563" class="cls-7" x="139.79" y="149.73" width="0.87" height="11.51"/></g><g id="组_4267" data-name="组 4267"><path id="路径_7311-3" data-name="路径 7311-3" class="cls-4" d="M1069.25,173.83c-3-.37-7.12,13.51,0,13.51S1072.26,174.2,1069.25,173.83Z" transform="translate(0 0)"/><rect id="矩形_6562-3" data-name="矩形 6562-3" class="cls-7" x="1069" y="183.41" width="0.35" height="7.78"/></g><g id="组_4268" data-name="组 4268"><path id="路径_7311-4" data-name="路径 7311-4" class="cls-4" d="M759.53,141.45c-3.78-.48-9,17.11,0,17.11S763.33,141.92,759.53,141.45Z" transform="translate(0 0)"/><rect id="矩形_6562-4" data-name="矩形 6562-4" class="cls-7" x="759.21" y="153.58" width="0.44" height="9.87"/></g><g id="组_4265" data-name="组 4265"><path id="路径_7312-2" data-name="路径 7312-2" class="cls-6" d="M996.19,146.83c2.73-.25,3.84,13.69,0,13.69S993.18,147.1,996.19,146.83Z" transform="translate(0 0)"/><rect id="矩形_6563-2" data-name="矩形 6563-2" class="cls-5" x="995.92" y="156.69" width="0.51" height="6.75"/></g><g id="组_4266" data-name="组 4266"><path id="路径_7312-3" data-name="路径 7312-3" class="cls-6" d="M972.14,160.86c2.72-.25,3.83,13.69,0,13.69S969.12,161.13,972.14,160.86Z" transform="translate(0 0)"/><rect id="矩形_6563-3" data-name="矩形 6563-3" class="cls-5" x="971.87" y="170.73" width="0.51" height="6.75"/></g><g id="组_4252" data-name="组 4252"><path id="路径_7310-3" data-name="路径 7310-3" class="cls-6" d="M1354.23,194.73c-3.11-.29-4.37,15.61,0,15.61S1357.66,195,1354.23,194.73Z" transform="translate(0 0)"/><rect id="矩形_6561-3" data-name="矩形 6561-3" class="cls-5" x="1353.96" y="204.37" width="0.51" height="8.72"/></g><g id="组_4250" data-name="组 4250"><path id="路径_7311-5" data-name="路径 7311-5" class="cls-4" d="M1377.18,207.19c-3.24-.41-7.76,14.7,0,14.7S1380.45,207.6,1377.18,207.19Z" transform="translate(0 0)"/><rect id="矩形_6562-5" data-name="矩形 6562-5" class="cls-5" x="1376.91" y="217.62" width="0.38" height="8.48"/></g><g id="组_4255" data-name="组 4255"><path id="路径_7310-4" data-name="路径 7310-4" class="cls-6" d="M2063.87,201.67c-3.1-.28-4.37,15.61,0,15.61S2067.31,202,2063.87,201.67Z" transform="translate(0 0)"/><rect id="矩形_6561-4" data-name="矩形 6561-4" class="cls-7" x="2063.61" y="211.31" width="0.51" height="8.72"/></g><g id="组_4256" data-name="组 4256"><path id="路径_7310-5" data-name="路径 7310-5" class="cls-6" d="M2242.16,202c-4.7-.42-6.6,23.59,0,23.59S2247.35,202.5,2242.16,202Z" transform="translate(0 0)"/><rect id="矩形_6561-5" data-name="矩形 6561-5" class="cls-7" x="2241.76" y="216.6" width="0.77" height="13.17"/></g><g id="组_4254" data-name="组 4254"><path id="路径_7311-6" data-name="路径 7311-6" class="cls-4" d="M2128.94,180.22c-6.64-.83-15.89,30.1,0,30.1S2135.63,181.06,2128.94,180.22Z" transform="translate(0 0)"/><rect id="矩形_6562-6" data-name="矩形 6562-6" class="cls-7" x="2128.38" y="201.57" width="0.78" height="17.35"/></g><g id="组_4251" data-name="组 4251"><path id="路径_7312-4" data-name="路径 7312-4" class="cls-6" d="M1822.18,141.23c3.6-.33,5.07,18.08,0,18.08S1818.21,141.59,1822.18,141.23Z" transform="translate(0 0)"/><rect id="矩形_6563-4" data-name="矩形 6563-4" class="cls-7" x="1821.83" y="154.26" width="0.68" height="8.92"/></g><g id="组_4258" data-name="组 4258"><path id="路径_7312-5" data-name="路径 7312-5" class="cls-6" d="M1955.68,161c4.65-.43,6.54,23.34,0,23.34S1950.55,161.49,1955.68,161Z" transform="translate(0 0)"/><rect id="矩形_6563-5" data-name="矩形 6563-5" class="cls-7" x="1955.22" y="177.85" width="0.87" height="11.51"/></g><g id="组_4259" data-name="组 4259"><path id="路径_7312-6" data-name="路径 7312-6" class="cls-6" d="M1799.48,156.05c4.65-.42,6.53,23.34,0,23.34S1794.34,156.52,1799.48,156.05Z" transform="translate(0 0)"/><rect id="矩形_6563-6" data-name="矩形 6563-6" class="cls-7" x="1799.02" y="172.87" width="0.87" height="11.51"/></g><g id="组_4262" data-name="组 4262"><path id="路径_7310-6" data-name="路径 7310-6" class="cls-6" d="M2718.1,230.74c-3.1-.28-4.37,15.61,0,15.61S2721.54,231.05,2718.1,230.74Z" transform="translate(0 0)"/><rect id="矩形_6561-6" data-name="矩形 6561-6" class="cls-7" x="2717.84" y="240.38" width="0.51" height="8.72"/></g><g id="组_4260" data-name="组 4260"><path id="路径_7310-7" data-name="路径 7310-7" class="cls-4" d="M2734.11,216c-4.7-.43-6.6,23.58,0,23.58S2739.3,216.5,2734.11,216Z" transform="translate(0 0)"/><rect id="矩形_6561-7" data-name="矩形 6561-7" class="cls-7" x="2733.72" y="230.6" width="0.77" height="13.17"/></g><g id="组_4261" data-name="组 4261"><path id="路径_7310-8" data-name="路径 7310-8" class="cls-6" d="M2905.52,207c-4.7-.43-6.6,23.58,0,23.58S2910.71,207.48,2905.52,207Z" transform="translate(0 0)"/><rect id="矩形_6561-8" data-name="矩形 6561-8" class="cls-7" x="2905.12" y="221.58" width="0.77" height="13.17"/></g><path id="路径_7669" data-name="路径 7669" class="cls-8" d="M91.92,70.05c-5.36-.66-12.82,24.29,0,24.29S97.32,70.73,91.92,70.05Z" transform="translate(0 0)"/><path id="路径_7678" data-name="路径 7678" class="cls-9" d="M885.92,85.35c-4.34-.54-10.39,19.69,0,19.69S890.29,85.9,885.92,85.35Z" transform="translate(0 0)"/><path id="路径_7673" data-name="路径 7673" class="cls-8" d="M367.92,91.35c-2.14-.27-5.11,9.69,0,9.69S370.08,91.62,367.92,91.35Z" transform="translate(0 0)"/><path id="路径_7674" data-name="路径 7674" class="cls-8" d="M355.92,86.35c-2.14-.27-5.11,9.69,0,9.69S358.08,86.62,355.92,86.35Z" transform="translate(0 0)"/><path id="路径_7675" data-name="路径 7675" class="cls-9" d="M596.92,107.35c-2.14-.27-5.11,9.69,0,9.69S599.08,107.62,596.92,107.35Z" transform="translate(0 0)"/><path id="路径_7676" data-name="路径 7676" class="cls-9" d="M636.92,95.35c-2.14-.27-5.11,9.69,0,9.69S639.08,95.62,636.92,95.35Z" transform="translate(0 0)"/><path id="路径_7677" data-name="路径 7677" class="cls-9" d="M785.92,95.35c-2.14-.27-5.11,9.69,0,9.69S788.08,95.62,785.92,95.35Z" transform="translate(0 0)"/><path id="路径_7679" data-name="路径 7679" class="cls-9" d="M987.92,88.35c-2.14-.27-5.11,9.69,0,9.69S990.08,88.62,987.92,88.35Z" transform="translate(0 0)"/><path id="路径_7680" data-name="路径 7680" class="cls-9" d="M907.92,88.35c-2.14-.27-5.11,9.69,0,9.69S910.08,88.62,907.92,88.35Z" transform="translate(0 0)"/><path id="路径_7670" data-name="路径 7670" class="cls-8" d="M140.22,67.11c3-.27,4.18,14.93,0,14.93S136.93,67.41,140.22,67.11Z" transform="translate(0 0)"/><path id="路径_7671" data-name="路径 7671" class="cls-8" d="M220.22,67.11c3-.27,4.18,14.93,0,14.93S216.93,67.41,220.22,67.11Z" transform="translate(0 0)"/><path id="路径_7672" data-name="路径 7672" class="cls-8" d="M207.22,62.11c3-.27,4.18,14.93,0,14.93S203.93,62.41,207.22,62.11Z" transform="translate(0 0)"/><path id="路径_7681" data-name="路径 7681" class="cls-10" d="M1318.92,147.35c-2.14-.27-5.11,9.69,0,9.69S1321.08,147.62,1318.92,147.35Z" transform="translate(0 0)"/><path id="路径_7682" data-name="路径 7682" class="cls-10" d="M1485.92,147.35c-2.14-.27-5.11,9.69,0,9.69S1488.08,147.62,1485.92,147.35Z" transform="translate(0 0)"/><path id="路径_7683" data-name="路径 7683" class="cls-10" d="M1547.22,165.11c3-.27,4.18,14.93,0,14.93S1543.93,165.41,1547.22,165.11Z" transform="translate(0 0)"/><path id="路径_7684" data-name="路径 7684" class="cls-10" d="M1332.22,141.11c3-.27,4.18,14.93,0,14.93S1328.93,141.41,1332.22,141.11Z" transform="translate(0 0)"/><path id="路径_7685" data-name="路径 7685" class="cls-11" d="M1984.92,124.35c-2.14-.27-5.11,9.69,0,9.69S1987.08,124.62,1984.92,124.35Z" transform="translate(0 0)"/><path id="路径_7690" data-name="路径 7690" class="cls-12" d="M2405.92,148.35c-2.14-.27-5.11,9.69,0,9.69S2408.08,148.62,2405.92,148.35Z" transform="translate(0 0)"/><path id="路径_7691" data-name="路径 7691" class="cls-12" d="M2374.92,144.35c-2.14-.27-5.11,9.69,0,9.69S2377.08,144.62,2374.92,144.35Z" transform="translate(0 0)"/><path id="路径_7686" data-name="路径 7686" class="cls-11" d="M1924.22,126.11c3-.27,4.18,14.93,0,14.93S1920.93,126.41,1924.22,126.11Z" transform="translate(0 0)"/><path id="路径_7687" data-name="路径 7687" class="cls-11" d="M2196.22,157.11c3-.27,4.18,14.93,0,14.93S2192.93,157.41,2196.22,157.11Z" transform="translate(0 0)"/><path id="路径_7689" data-name="路径 7689" class="cls-11" d="M2218.22,154.11c3-.27,4.18,14.93,0,14.93S2214.93,154.41,2218.22,154.11Z" transform="translate(0 0)"/><path id="路径_7688" data-name="路径 7688" class="cls-11" d="M2143,144.77c-2-.24-4.74,9,0,9S2145,145,2143,144.77Z" transform="translate(0 0)"/><path id="路径_7692" data-name="路径 7692" class="cls-12" d="M2423,144.35c-3.94-.49-9.42,17.84,0,17.84S2426.91,144.85,2423,144.35Z" transform="translate(0 0)"/><path id="路径_7693" data-name="路径 7693" class="cls-13" d="M2778.92,152.35c-2.14-.27-5.11,9.69,0,9.69S2781.08,152.62,2778.92,152.35Z" transform="translate(0 0)"/><path id="路径_7695" data-name="路径 7695" class="cls-13" d="M2885.92,157.35c-2.14-.27-5.11,9.69,0,9.69S2888.08,157.62,2885.92,157.35Z" transform="translate(0 0)"/><path id="路径_7696" data-name="路径 7696" class="cls-13" d="M2908.92,147.35c-2.14-.27-5.11,9.69,0,9.69S2911.08,147.62,2908.92,147.35Z" transform="translate(0 0)"/><path id="路径_7694" data-name="路径 7694" class="cls-13" d="M2796,148.35c-3.94-.49-9.42,17.84,0,17.84S2799.91,148.85,2796,148.35Z" transform="translate(0 0)"/><path id="路径_7697" data-name="路径 7697" class="cls-13" d="M2709,175.09c-2.73-.34-6.53,12.36,0,12.36S2711.69,175.43,2709,175.09Z" transform="translate(0 0)"/></g></g></svg>