<svg xmlns="http://www.w3.org/2000/svg" width="270" height="40" viewBox="0 0 270 40">
  <g id="Group_10921" data-name="Group 10921" transform="translate(-1211 -2490)">
    <rect id="Rectangle_9423" data-name="Rectangle 9423" width="270" height="40" transform="translate(1211 2490)" fill="#ffd8d8" opacity="0"/>
    <g id="Group_10919" data-name="Group 10919" transform="translate(1981.191 2517.475)">
      <g id="Group_10896" data-name="Group 10896" transform="translate(-609.191 -20.104)">
        <g id="Group_10892" data-name="Group 10892" transform="translate(32.913 2.713)">
          <path id="Path_33339" data-name="Path 33339" d="M-353.393,11.032a21.081,21.081,0,0,0-.019-2.624c-.2-1.609.447-2.421,2.054-2.4,1.415.022,2.868-.152,2.955,2.061.083,2.089,1.848,2.956,3.577,3.306,1.913.388,4.035.751,5.628-.914,1.365-1.426.481-3.4-1.9-4.352-2.575-1.032-5.377-1.376-7.9-2.6a6.529,6.529,0,0,1-4.036-5.992A7.03,7.03,0,0,1-349.58-9.1a9.874,9.874,0,0,1,9.556-.538c.8.358,1.141.576,2.092-.09,2.169-1.518,4.347-.175,4.353,2.407,0,1.274-.069,2.551.019,3.818.1,1.429-.094,2.559-1.856,2.6-1.523.035-2.9.167-3.393-1.987-.639-2.812-4.885-4.01-7.248-2.279a2.249,2.249,0,0,0-.966,2.274c.146,1.144,1.034,1.6,1.933,1.893,2.34.752,4.761,1.267,7.065,2.11,3.791,1.387,5.385,3.564,5.423,6.976.048,4.33-1.8,6.73-6.043,7.9a13.574,13.574,0,0,1-5.925.161c-1.909-.325-3.426-1.548-5.788-.47s-3.018.153-3.035-2.493C-353.4,12.464-353.393,11.748-353.393,11.032Z" transform="translate(353.448 10.622)" fill="#fafdfe"/>
          <path id="Path_33340" data-name="Path 33340" d="M-275.366,16.162c-.956,0-1.917-.035-2.863-.031s-2.032.206-2.445-.944c-.4-1.128-1.01-3,1.383-3.289.917-.112.546-.863.419-1.3-.225-.781-.219-1.848-1.442-1.864-1.831-.024-3.663-.013-5.494-.015-1.5,0-1.345,1.268-1.693,2.171-.491,1.274.537.9,1.111,1.107,1.157.411.944,1.983.839,3.108-.1,1.024-.7,1.059-1.46,1.058-2.469,0-4.938-.025-7.406.011-1.011.015-1.517-.138-1.6-1.386-.075-1.138-.657-2.635,1.206-2.9,1.383-.2,1.4-1.02,1.686-1.876,2.047-6.081,4.135-12.149,6.095-18.257a2.192,2.192,0,0,1,2.5-1.814c5.389.012,5.384-.042,7.025,5.1q2.42,7.575,4.854,15.146c.211.661.213,1.537,1.1,1.616,2.012.177,1.7,1.663,1.682,2.912-.021,1.668-1.29,1.463-2.4,1.454C-273.295,16.154-274.331,16.162-275.366,16.162ZM-282.8-3.709c-.087,0-.248,0-.415,0-.659,2.241-1.207,4.5-2.005,6.687-.534,1.466-.173,1.752,1.282,1.728.552-.009,1.111-.008,1.663,0,1.566.028,1.845-.323,1.4-1.732C-281.571.8-282.175-1.512-282.8-3.709Z" transform="translate(319.263 10.287)" fill="#f9fcfe"/>
          <path id="Path_33341" data-name="Path 33341" d="M-221.278-9.047c3.266,0,6.534.064,9.8-.03,1.376-.039,1.808.4,1.728,1.749a37.474,37.474,0,0,0,0,5.243c.164,2.033-1.023,2.136-2.528,2.143-1.48.006-2.533-.261-2.308-2.095.192-1.556.11-2.788-2.128-2.58-1.358.126-1.737.513-1.717,1.829.069,4.53.034,9.062.021,13.594,0,.913-.092,1.73,1.29,1.657,1.807-.1,1.419,1.416,1.417,2.392s-.142,2.009-1.72,1.928c-2.622-.134-5.256-.056-7.885-.027-.988.011-1.605-.117-1.679-1.359-.061-1.028-.671-2.684,1.242-2.925,1.192-.15,1.207-.7,1.205-1.548-.007-4.611-.052-9.222.027-13.832.025-1.471-.637-1.689-1.872-1.678-1.218.01-1.89.206-1.92,1.679-.057,2.852-.755,3.354-3.345,2.928A1.6,1.6,0,0,1-233.178-1.7c-.617-7.351-.642-7.349,6.642-7.349Z" transform="translate(281.828 9.702)" fill="#fafdfe"/>
        </g>
        <g id="Group_10895" data-name="Group 10895" transform="translate(0 0.808)">
          <g id="Group_10894" data-name="Group 10894" transform="translate(0.059 0)">
            <rect id="Rectangle_9395" data-name="Rectangle 9395" width="6.421" height="20.25" transform="translate(6.461 25.222) rotate(-156.712)" fill="none" stroke="#fff" stroke-linecap="round" stroke-linejoin="round" stroke-width="1.4"/>
            <path id="Rectangle_9396" data-name="Rectangle 9396" d="M0,0H6.421a0,0,0,0,1,0,0V1.235a3.21,3.21,0,0,1-3.21,3.21h0A3.21,3.21,0,0,1,0,1.235V0A0,0,0,0,1,0,0Z" transform="translate(14.466 6.621) rotate(-156.712)" fill="none" stroke="#fff" stroke-miterlimit="10" stroke-width="1.4"/>
            <path id="Rectangle_9397" data-name="Rectangle 9397" d="M0,0H6.421a0,0,0,0,1,0,0V1.235a3.21,3.21,0,0,1-3.21,3.21h0A3.21,3.21,0,0,1,0,1.235V0A0,0,0,0,1,0,0Z" transform="translate(14.466 6.621) rotate(-156.712)" fill="#fff"/>
            <line id="Line_8" data-name="Line 8" y1="18.541" x2="7.98" transform="translate(4.482 5.964)" fill="none" stroke="#fff" stroke-linecap="round" stroke-linejoin="round" stroke-width="1.2"/>
            <line id="Line_9" data-name="Line 9" y1="18.714" x2="8.055" transform="translate(2.556 4.962)" fill="none" stroke="#fff" stroke-linecap="round" stroke-linejoin="round" stroke-width="1.2"/>
            <g id="Group_10893" data-name="Group 10893" transform="translate(0 22.683)">
              <path id="Path_33342" data-name="Path 33342" d="M-412.756,54.2l1.361.586,1.271-1.4-2.492-1.072Z" transform="translate(412.756 -46.642)" fill="none" stroke="#fff" stroke-linecap="round" stroke-linejoin="round" stroke-width="1.4"/>
              <path id="Path_33343" data-name="Path 33343" d="M-412.03,40.074l-.423,5.672,2.491,1.072,3.829-4.206Z" transform="translate(412.593 -40.074)" fill="none" stroke="#fff" stroke-linecap="round" stroke-linejoin="round" stroke-width="1.4"/>
            </g>
            <rect id="Rectangle_9398" data-name="Rectangle 9398" width="6.421" height="20.25" transform="translate(6.461 25.222) rotate(-156.712)" fill="none" stroke="#fff" stroke-linecap="round" stroke-linejoin="round" stroke-width="1.4"/>
          </g>
          <rect id="Rectangle_9399" data-name="Rectangle 9399" width="1.546" height="1.785" transform="translate(0.706 28.573) rotate(23.288)" fill="#ffca29" stroke="#fff" stroke-width="1"/>
        </g>
      </g>
    </g>
    <g id="Group_10920" data-name="Group 10920" transform="translate(1214.285 2492)">
      <g id="logo_1">
        <g id="Group_10890" data-name="Group 10890">
          <g id="Group_10887" data-name="Group 10887" transform="translate(0 10.104)">
            <g id="Group_10885" data-name="Group 10885" transform="translate(26.855 0)">
              <path id="Path_33331" data-name="Path 33331" d="M-702.884,7.61a12.651,12.651,0,0,1,3.947-9.384,13.227,13.227,0,0,1,9.619-3.869,13.3,13.3,0,0,1,9.672,3.895,12.963,12.963,0,0,1,3.921,9.567,12.893,12.893,0,0,1-3.947,9.593,13.49,13.49,0,0,1-9.75,3.843,12.936,12.936,0,0,1-9.593-3.921A13.185,13.185,0,0,1-702.884,7.61Zm5.549.1a9.111,9.111,0,0,0,2.164,6.408,7.616,7.616,0,0,0,5.853,2.386,7.608,7.608,0,0,0,5.854-2.358,8.883,8.883,0,0,0,2.192-6.3,8.885,8.885,0,0,0-2.192-6.3,7.621,7.621,0,0,0-5.854-2.386,7.552,7.552,0,0,0-5.8,2.386A8.681,8.681,0,0,0-697.335,7.707Z" transform="translate(702.884 5.643)" fill="#fff"/>
            </g>
            <path id="Path_33332" data-name="Path 33332" d="M-635.179,1.324h7.232v20.14h5.548V1.324h5.332V-3.939h-18.113Z" transform="translate(691.727 4.686)" fill="#fff"/>
            <path id="Path_33333" data-name="Path 33333" d="M-565.676,1.324h-7.232v20.14h-5.548V1.324h-5.332V-3.939h18.113Z" transform="translate(662.874 4.686)" fill="#fff"/>
            <g id="Group_10886" data-name="Group 10886" transform="translate(99.466 0)">
              <path id="Path_33334" data-name="Path 33334" d="M-516.335-4.9h5.549v25.4h-5.549V17.857a12.116,12.116,0,0,1-8.181,3.4,12.074,12.074,0,0,1-9.114-3.816,14.384,14.384,0,0,1-3.69-9.724,13.929,13.929,0,0,1,3.659-9.541,11.909,11.909,0,0,1,8.988-3.816,11.6,11.6,0,0,1,8.338,3.659ZM-532.06,7.847a9.11,9.11,0,0,0,2.164,6.408,7.616,7.616,0,0,0,5.853,2.386,7.61,7.61,0,0,0,5.854-2.358A8.884,8.884,0,0,0-516,7.985a8.885,8.885,0,0,0-2.192-6.3A7.62,7.62,0,0,0-524.043-.7a7.552,7.552,0,0,0-5.8,2.386A8.682,8.682,0,0,0-532.06,7.847Z" transform="translate(537.32 5.643)" fill="#fff"/>
            </g>
            <path id="Path_33335" data-name="Path 33335" d="M-747.661,21.464V12.92l10.908-16.859h-6.4L-750.435,7.7-757.72-3.939h-6.4l10.908,16.859v8.544Z" transform="translate(764.117 4.686)" fill="#fff"/>
          </g>
          <g id="Group_10889" data-name="Group 10889" transform="translate(129.895)">
            <g id="Group_10888" data-name="Group 10888" transform="translate(4.958 10.256)" opacity="0.6">
              <path id="Path_33336" data-name="Path 33336" d="M-454.056-5.088h0a20.463,20.463,0,0,1-2.414,9.668c-.056.086-.107.176-.161.264.054-.088.106-.178.161-.264A15.057,15.057,0,0,1-443.8-2.348,20.464,20.464,0,0,1-454.056-5.088Z" transform="translate(456.632 5.088)" fill="#fff"/>
            </g>
            <path id="Path_33337" data-name="Path 33337" d="M-443.573-20.2h-.022a15.058,15.058,0,0,1-12.669-6.928,20.462,20.462,0,0,1,2.414,9.667,20.464,20.464,0,0,0,10.255,2.74h.022a10.631,10.631,0,0,0,.357-2.74A10.63,10.63,0,0,0-443.573-20.2Z" transform="translate(461.383 27.72)" fill="#fff" opacity="0.8"/>
            <path id="Path_33338" data-name="Path 33338" d="M-463.177-28.473q.174.3.36.589a20.456,20.456,0,0,1,2.414,9.667,20.458,20.458,0,0,1-2.414,9.668q-.186.289-.36.589a10.609,10.609,0,0,1-4.758-2.772h0a14.964,14.964,0,0,0,1.995-7.484,14.964,14.964,0,0,0-1.995-7.483h0A10.6,10.6,0,0,1-463.177-28.473Z" transform="translate(467.936 28.473)" fill="#fff"/>
          </g>
        </g>
      </g>
    </g>
  </g>
</svg>
