<svg id="eqwXKC12Ryx1" xmlns="http://www.w3.org/2000/svg" xmlns:xlink="http://www.w3.org/1999/xlink" viewBox="0 0 110 99.96" shape-rendering="geometricPrecision" text-rendering="geometricPrecision"><style><![CDATA[#eqwXKC12Ryx28_to {animation: eqwXKC12Ryx28_to__to 4500ms linear infinite normal forwards}@keyframes eqwXKC12Ryx28_to__to { 0% {transform: translate(74.360754px,79.677635px);animation-timing-function: cubic-bezier(0.42,0,0.58,1)} 13.333333% {transform: translate(74.360754px,75.677635px);animation-timing-function: cubic-bezier(0.42,0,0.58,1)} 66.666667% {transform: translate(74.360754px,75.677635px);animation-timing-function: cubic-bezier(0.42,0,0.58,1)} 80% {transform: translate(74.360754px,79.677635px)} 100% {transform: translate(74.360754px,79.677635px)}} #eqwXKC12Ryx88_to {animation: eqwXKC12Ryx88_to__to 4500ms linear infinite normal forwards}@keyframes eqwXKC12Ryx88_to__to { 0% {transform: translate(74.696005px,81px);animation-timing-function: cubic-bezier(0.42,0,0.58,1)} 13.333333% {transform: translate(74.696005px,73px);animation-timing-function: cubic-bezier(0.42,0,0.58,1)} 66.666667% {transform: translate(74.696005px,73px);animation-timing-function: cubic-bezier(0.42,0,0.58,1)} 80% {transform: translate(74.696005px,81px)} 100% {transform: translate(74.696005px,81px)}} #eqwXKC12Ryx88_tr {animation: eqwXKC12Ryx88_tr__tr 4500ms linear infinite normal forwards}@keyframes eqwXKC12Ryx88_tr__tr { 0% {transform: rotate(0deg)} 13.333333% {transform: rotate(0deg);animation-timing-function: cubic-bezier(0.42,0,0.58,1)} 22.222222% {transform: rotate(-4deg);animation-timing-function: cubic-bezier(0.42,0,0.58,1)} 33.333333% {transform: rotate(4deg);animation-timing-function: cubic-bezier(0.42,0,0.58,1)} 44.444444% {transform: rotate(-4deg);animation-timing-function: cubic-bezier(0.42,0,0.58,1)} 55.555556% {transform: rotate(4deg);animation-timing-function: cubic-bezier(0.42,0,0.58,1)} 66.666667% {transform: rotate(0deg)} 100% {transform: rotate(0deg)}} #eqwXKC12Ryx256_tr {animation: eqwXKC12Ryx256_tr__tr 4500ms linear infinite normal forwards}@keyframes eqwXKC12Ryx256_tr__tr { 0% {transform: translate(30.965px,56.293572px) rotate(0deg)} 6.666667% {transform: translate(30.965px,56.293572px) rotate(0deg);animation-timing-function: cubic-bezier(0.42,0,0.58,1)} 24.444444% {transform: translate(30.965px,56.293572px) rotate(8deg);animation-timing-function: cubic-bezier(0.42,0,0.58,1)} 40% {transform: translate(30.965px,56.293572px) rotate(-8deg);animation-timing-function: cubic-bezier(0.42,0,0.58,1)} 55.555556% {transform: translate(30.965px,56.293572px) rotate(8deg);animation-timing-function: cubic-bezier(0.42,0,0.58,1)} 75.555556% {transform: translate(30.965px,56.293572px) rotate(0deg)} 100% {transform: translate(30.965px,56.293572px) rotate(0deg)}} #eqwXKC12Ryx311_to {animation: eqwXKC12Ryx311_to__to 4500ms linear infinite normal forwards}@keyframes eqwXKC12Ryx311_to__to { 0% {transform: translate(30.43px,22.1px)} 11.111111% {transform: translate(30.43px,22.1px);animation-timing-function: cubic-bezier(0.42,0,0.58,1)} 31.111111% {transform: translate(36.43px,21.1px);animation-timing-function: cubic-bezier(0.42,0,0.58,1)} 46.666667% {transform: translate(27.43px,21.1px);animation-timing-function: cubic-bezier(0.42,0,0.58,1)} 64.444444% {transform: translate(38.43px,21.1px);animation-timing-function: cubic-bezier(0.42,0,0.58,1)} 84.444444% {transform: translate(30.43px,22.1px)} 100% {transform: translate(30.43px,22.1px)}} #eqwXKC12Ryx311_tr {animation: eqwXKC12Ryx311_tr__tr 4500ms linear infinite normal forwards}@keyframes eqwXKC12Ryx311_tr__tr { 0% {transform: rotate(0deg)} 13.333333% {transform: rotate(0deg);animation-timing-function: cubic-bezier(0.42,0,0.58,1)} 31.111111% {transform: rotate(21deg);animation-timing-function: cubic-bezier(0.42,0,0.58,1)} 46.666667% {transform: rotate(-18deg);animation-timing-function: cubic-bezier(0.42,0,0.58,1)} 64.444444% {transform: rotate(18deg);animation-timing-function: cubic-bezier(0.42,0,0.58,1)} 82.222222% {transform: rotate(0deg)} 100% {transform: rotate(0deg)}}]]></style><g><rect style="isolation:isolate" width="110" height="99.96" rx="0" ry="0" opacity="0" fill="none"/><g><g><g><g><path d="M77.66,90.45h1.09c1.656854,0,3,1.343146,3,3v3.87c0,1.104569-.895431,2-2,2h-3.09c-1.104569,0-2-.895431-2-2v-3.87c0-1.656854,1.343146-3,3-3Z" transform="translate(0-.04)"/></g><g><path d="M70.57,90.45h1.09c1.656854,0,3,1.343146,3,3v3.87c0,1.104569-.895431,2-2,2h-3.09c-1.104569,0-2-.895431-2-2v-3.87c0-1.656854,1.343146-3,3-3Z" transform="translate(0-.04)"/></g><g><g><g><path d="M48.87,32.7c-3.36,6.9-5,18.73-3.25,27.4c1.93,9.44-3.25,12.15-1.94,18.49c1.81,5.55,6.62,9.53,14.56,10s19.67-.81,29.19,1.41s17.38-4.2,18.1-9.51-2.07-5.19-3-13.14c-.42-3.86.53-15.06.83-19.92.289948-3.932165-.451128-7.871935-2.15-11.43-2.06-4.6-6.75-13.5-17.46-16.62-13.29-4.53-28.62.42-34.88,13.32Z" transform="translate(0-.04)" fill="#4c545a"/></g></g></g><g clip-path="url(#eqwXKC12Ryx26)"><g><g><g><g><g><g opacity="0.2"><g><g><g><path d="M54.66,51.3c0,0,.63,14.14-2.32,21.27s-3.94,13.06,8,17.79s30.24,2.64,32.79,1.5s10-8.15,4.32-15.72-3-23.06-3-23.06Z" transform="translate(0-.04)"/></g></g></g></g></g></g></g></g></g><clipPath id="eqwXKC12Ryx26" transform="translate(0-.04)"><path d="M48.87,32.7c-3.36,6.9-5,18.73-3.25,27.4c1.93,9.44-3.25,12.15-1.94,18.49c1.81,5.55,6.62,9.53,14.56,10s19.67-.81,29.19,1.41s17.38-4.21,18.1-9.52-2.07-5.19-3-13.14c-.71-6.5.58-18.1.82-23s-5.26-21-19.35-25.12c-13.26-4.54-28.87.58-35.13,13.48Z" fill="none"/></clipPath></g><g id="eqwXKC12Ryx28_to" transform="translate(74.360754,79.677635)"><g transform="translate(-74.360754,-79.677635)"><g><g><path d="M86.25,74c0,0,4.4,5.49,4.81,7c.5,1.85.39,3.23-1.31,4.25s-4.13-.36-5,0c-1.4.58-1.45-10.78-.42-11.29.610388-.290702,1.322249-.275872,1.92.04Z" transform="translate(0-.04)" fill="#c93e3d"/></g><g transform="matrix(-1 0 0 1 148.940766 0)"><path d="M86.25,74c0,0,4.4,5.49,4.81,7c.5,1.85.39,3.23-1.31,4.25s-4.13-.36-5,0c-1.4.58-1.45-10.78-.42-11.29.610388-.290702,1.322249-.275872,1.92.04Z" transform="translate(0-.04)" fill="#c93e3d"/></g></g></g></g><g><path d="M65.44,90.45h9.22v6.16C74.66,98,74.1,98,71.5,98s-3.86,0-5.3-1.36c-2-1.79-2.16-5.7-2.16-5.7-.04-.58.85-.49,1.4-.49Z" transform="translate(0-.04)" fill="#c93e3d"/></g><g><path d="M83.74,90.45h-9.22v6.16c0,1.43.57,1.36,3.16,1.36s3.86,0,5.3-1.36c2-1.79,2.16-5.7,2.16-5.7c0-.55-.85-.46-1.4-.46Z" transform="translate(0-.04)" fill="#c93e3d"/></g><g><path d="M65.61,73.45h17.39c1.557766-.058163,2.882828,1.125558,3,2.68l2,15.1c-.117172,1.554442-1.442234,2.738163-3,2.68h-21.47c-1.586221.102966-2.957834-1.094403-3.07-2.68l2-15.1c.053715-.767242.411046-1.481424.99288-1.984429s1.340172-.753337,2.10712-.695571Z" transform="translate(0-.04)" fill="#c93e3d"/><g><rect width="2" height="14" rx="0" ry="0" transform="translate(74 76.96)" fill="#f2cb30"/><rect width="10" height="2" rx="0" ry="0" transform="translate(70 79.96)" fill="#f2cb30"/><rect width="10" height="2" rx="0" ry="0" transform="translate(70 84.96)" fill="#f2cb30"/></g></g><g><path d="M74.26,94.45c-4.497569-.031125-8.990408-.298159-13.46-.8-.357266-.041086-.665474-.269649-.808525-.599593s-.099214-.711142.115-1s.566259-.441493.923525-.400407c4.389914.493238,8.802587.75693,13.22.79c4.463613-.026689,8.922876-.283697,13.36-.77.552285-.060751,1.049249.337715,1.11.89s-.337715,1.049249-.89,1.11v0c-4.507204.489652-9.036376.749987-13.57.78Z" transform="translate(0-.04)" fill="#f2cb30"/></g><g><g><g><g><path d="M74.33,29.76c13.442473.082433,24.299261,10.997279,24.31,24.44c0,13.51-10.87,21.6-24.31,21.6s-24.33-8.07-24.33-21.59c-.000221-13.443354,10.856866-24.362992,24.3-24.44Z" transform="translate(0-.04)" fill="#fddfbc"/></g></g></g><g opacity="0.6"><g><g><path d="M74.23,75.81c-2.957974.022119-5.903024-.392345-8.74-1.23c1.175609.128372,2.357404.191802,3.54.19c6.259574.14991,12.374978-1.890916,17.29-5.77c2.200593-1.839085,3.969147-4.140254,5.18-6.74c1.290681-2.823782,1.949349-5.895289,1.93-9c.040405-10.66739-6.839777-20.129662-17-23.38c12.593157,1.14248,22.239683,11.695129,22.25,24.34.027691,3.123813-.627595,6.215943-1.92,9.06-1.217279,2.612703-2.99223,4.926966-5.2,6.78-4.922261,3.892168-11.057359,5.927761-17.33,5.75Z" transform="translate(0-.04)" fill="#ffd5a3"/></g></g></g><g><g><g><path d="M63,56.78v0c1.111285.047857,1.990386.957727,2,2.07v2.08c-.009614,1.112273-.888715,2.022143-2,2.07v0c-.549.002659-1.07657-.212884-1.466647-.599211s-.610707-.911789-.613353-1.460789v0-2.09c-.000006-.550735.219454-1.078769.60982-1.467258s.919451-.605403,1.47018-.602742Z" transform="translate(0-.04)" fill="#4c545a"/></g></g></g><g><g><g><path d="M85.71,56.78v0c1.138707.010846,2.059154.931293,2.07,2.07v2.08c-.010846,1.138707-.931293,2.059154-2.07,2.07v0c-.549.002659-1.07657-.212884-1.466647-.599211s-.610707-.911789-.613353-1.460789v0-2.09c0-1.143229.926771-2.07,2.07-2.07Z" transform="translate(0-.04)" fill="#4c545a"/></g></g></g><g><g><g><path d="M74.13,68.1c-.885113-.02639-1.754432-.241163-2.55-.63-.423917-.246266-.58738-.776978-.375486-1.219079s.727983-.647111,1.185486-.470921c.545268.272644,1.141142.429274,1.75.46.548771-.047109,1.082576-.203511,1.57-.46.433752-.249716.987747-.102282,1.24.33v0v0c.250518.428128.107399.978241-.32,1.23h-.07c-.743441.430803-1.573579.690435-2.43.76Z" transform="translate(0-.04)" fill="#4c545a"/></g></g></g><g><g><g><path d="M50.28,49.88c0,0,9.89-2.83,14.32-8s7-2.48,9.15-1.28s7.25,5.83,13.83,8.81c3.643604,1.761175,7.633186,2.690256,11.68,2.72c4,0,.32-13.83-7.75-18.92s-25-9.45-33.66,0-7.57,16.67-7.57,16.67Z" transform="translate(0-.04)" fill="#4c545a"/></g></g></g></g><g><g><g><g><path d="M49.44,54.63c-.786077-.249511-1.641926.057611-2.09.75-.76,1.23-.42,4.65,1.68,6.56c1.011186,1.106938,2.586864,1.500858,4,1s-2-7.54-2.53-7.75c-.384824-.11975-.744196-.309606-1.06-.56Z" transform="translate(0-.04)" fill="#fddfbc"/></g></g></g><g><g><g><path d="M99.13,55.26c.783441-.27107,1.649831.04133,2.08.75.76,1.24.44,4.66-1.67,6.56-1.014014,1.102188-2.586605,1.495336-4,1s2-7.53,2.54-7.74c.379534-.12967.734503-.322368,1.05-.57Z" transform="translate(0-.04)" fill="#fed9ad"/></g></g></g><g><g><g><path d="M50.21,48.63c0,0-1.76,11.77,2.92,20.37s8.4,8.31,8.4,8.31-12.07-8.61-7.68-23.6-2.72-6.94-2.72-6.94Z" transform="translate(0-.04)" fill="#4c545a"/></g></g></g><g><g><g><path d="M98.44,48.63c0,0,1.75,11.77-3,20.37s-8.31,8.31-8.31,8.31s12-8.6,7.67-23.6s2.72-6.93,2.72-6.93Z" transform="translate(0-.04)" fill="#4c545a"/></g></g></g></g><g id="eqwXKC12Ryx88_to" transform="translate(74.696005,81)"><g id="eqwXKC12Ryx88_tr" transform="rotate(0)"><g transform="translate(-74.696005,-81)"><g><g><g><g><path d="M58.42,73.92c0,0-.35,11.57,6.86,15.14s16.18,2.66,20.48-1.63s5.57-10.88,5.51-13.51c0-.9-12.37.59-17,1.16s-8.84-1-11.74-1.16c-1.367793-.10998-2.742207-.10998-4.11,0Z" transform="translate(0-.04)" fill="#f2cb30"/></g><g clip-path="url(#eqwXKC12Ryx101)"><g><g><g><g><g><path d="M58.42,73.92c0,0-.35,11.57,6.86,15.14s16.18,2.66,20.48-1.63s5.57-10.88,5.51-13.51c0-.91-12.37.59-17,1.16s-8.84-1-11.74-1.16c-1.367793-.10998-2.742207-.10998-4.11,0Z" transform="translate(0-.04)" fill="#cea525"/></g></g></g></g></g><clipPath id="eqwXKC12Ryx101" transform="translate(0-.04)"><path d="M57.74,73.5c0,0,8,7.64,17.74,6.92s15.44-5.37,16.45-6.92c0,.08-13.43-1.85-15.84-1.22s-12.25.18-14.48,0c-1.394816-.072567-2.768973.36063-3.87,1.22Z" fill="none"/></clipPath></g><g><ellipse rx="10" ry="4.5" transform="translate(75.13 75.19)" fill="#f2cb30"/></g><g><circle r="1.5" transform="translate(68.63 75.19)" fill="#fff"/></g></g></g></g><g><g><g><circle r="3.07" transform="translate(61.19 84.47)" fill="#fddfbc"/></g><g><circle r="3.07" transform="translate(87.81 84.47)" fill="#fddfbc"/></g></g></g><g><rect width="1.14" height="12.78" rx="0" ry="0" transform="translate(74.1 78.53)" fill="#f2cb30"/><path d="M72.17,81.39v0c0-.320325.259675-.58.58-.58h3.75c.152922-.000024.29944.061401.406628.170469s.166055.256632.163372.409531v0c0,.314802-.255198.57-.57.57h-3.75c-.31646.000047-.574544-.253587-.58-.57Z" transform="translate(0-.04)" fill="#f2cb30"/><rect width="4.9" height="1.14" rx="0" ry="0" transform="translate(72.17 84.07)" fill="#f2cb30"/><path d="M72.17,88v0c-.000024-.152922.061401-.29944.170469-.406628s.256632-.166055.409531-.163372h3.75c.151997-.002739.298575.056434.406071.163929s.166668.254074.163929.406071v0c.002739.151997-.056434.298575-.163929.406071s-.254074.166668-.406071.163929h-3.75c-.152899.002683-.300463-.056184-.409531-.163372s-.170493-.253706-.170469-.406628Z" transform="translate(0-.04)" fill="#f2cb30"/></g></g></g></g></g></g><g><g><path d="M87.7,9.26c3.164164-2.787022,7.109408-4.532705,11.3-5c6.76-.67,8.31-2.55,8.31-2.55s1.15,11.82-9.15,15-10.46-7.45-10.46-7.45Z" transform="translate(0-.04)" fill="#c93e3d"/></g><g clip-path="url(#eqwXKC12Ryx128)"><g><g><g><g><g><path d="M87.7,9.26c3.164164-2.787022,7.109408-4.532705,11.3-5c6.76-.67,8.31-2.55,8.31-2.55s1.15,11.82-9.15,15-10.46-7.45-10.46-7.45Z" transform="translate(0-.04)" fill="#ffc700"/></g></g></g></g></g><clipPath id="eqwXKC12Ryx128" transform="translate(0-.04)"><path d="M87.7,15.59c0,0,17.61,1.56,17.77-15.23.32-1.22,4.53,1.06,4.53,1.06l-2.94,12-9.68,6.18-9.08-1.26Z" fill="none"/></clipPath></g><g><g><path d="M61.41,9.26c-3.151175-2.782873-7.082439-4.52855-11.26-5-6.77-.69-8.27-2.57-8.27-2.57s-1.2,11.82,9.1,15s10.43-7.43,10.43-7.43Z" transform="translate(0-.04)" fill="#c93e3d"/></g><g clip-path="url(#eqwXKC12Ryx140)"><g><g><g><g><g><path d="M61.41,9.26c-3.151175-2.782873-7.082439-4.52855-11.26-5-6.77-.69-8.27-2.57-8.27-2.57s-1.2,11.82,9.1,15s10.43-7.43,10.43-7.43Z" transform="translate(0-.04)" fill="#ffc700"/></g></g></g></g></g><clipPath id="eqwXKC12Ryx140" transform="translate(0-.04)"><path d="M61.41,15.59c0,0-17.61,1.56-17.76-15.23-.33-1.22-4.54,1.06-4.54,1.06l3,12l9.68,6.22l9.07-1.26Z" fill="none"/></clipPath></g></g><g><path d="M46.13,37.05c-2.128143,1.411795-3.440124,3.767398-3.52,6.32-.35,4.58.81,7.9,4,9.8c2.84,1.71-2,1.6-2,1.6s7.61,3.33,11.27,1.87s1,.91,1,.91s5.1-.23,8.27-3.3s6-3,9.5-3.15s11.6,3.81,15.07,4.81c1.25.37-.73-1.26-.8-1.57s4.55,2.57,9.31,1.57c1.37,0-1.18-1-1.18-1s7.48-.75,8.89-5.67s1.26-11.4-3.25-14-27.16-2.6-27.16-2.6Z" transform="translate(0-.04)" fill="#fff"/></g><g><path d="M74.54,5.91c17.36,0,29,14.22,29,31.59s-18.2,5.53-29,4.59C64,42.7,45.45,54.86,45.45,37.5s11.72-31.59,29.09-31.59Z" transform="translate(0-.04)" fill="#c93e3d"/></g><g opacity="0.1"><circle r="4.29" transform="translate(73.8 19.14)"/></g><g><circle r="3.91" transform="translate(66.7 42.77)" fill="#db4949"/></g><g><circle r="8.94" transform="translate(59.43 29.91)" fill="#f2864e"/></g><g><ellipse rx="8.39" ry="8.94" transform="translate(87.94 29.91)" fill="#f2864e"/></g><g><circle r="3.91" transform="translate(82.35 42.77)" fill="#db4949"/></g><g><circle r="6.71" transform="translate(59.43 29.91)"/></g><g><circle r="1.12" transform="translate(59.43 29.91)" fill="#fff"/></g><g><ellipse rx="7.27" ry="6.71" transform="translate(87.94 29.91)"/></g><g><circle r="1.12" transform="translate(89.62 29.91)" fill="#fff"/></g><g><circle r="4.47" transform="translate(73.97 18.73)" fill="#f2864e"/></g><g><g><path d="M80.32,35.06c1.76-.92,7.34-8.45,13.17-8.91s10.16-7.91,10.11-10.92-3.3-2.5-4.11-1.68-4.38-.16-5.45,1.68-5.16.68-7.23,4.68c-2.7,1.73-4-.41-5.43,5.14-2.54,1.13-2.94,2-3.3,4.25-1.86,0-2.25,3.82-1.6,5.72s2.16.89,3.84.04Z" transform="translate(0-.04)" fill="#fff"/></g><g opacity="0.1"><g clip-path="url(#eqwXKC12Ryx177)"><g><g><g><g><g><path d="M80.32,35.06c1.76-.92,7.34-8.45,13.17-8.91s10.16-7.91,10.11-10.92-3.3-2.5-4.11-1.68-4.38-.16-5.45,1.68-5.16.68-7.23,4.68c-2.7,1.73-4-.41-5.43,5.14-2.54,1.13-2.94,2-3.3,4.25-1.86,0-2.25,3.82-1.6,5.72s2.16.89,3.84.04Z" transform="translate(0-.04)"/></g></g></g></g></g><clipPath id="eqwXKC12Ryx177" transform="translate(0-.04)"><path d="M75.23,31.1c0,0,2.31,4.69,5.12,1.52s8.54-8,12.2-8.61s12.16-7.61,13-11.3-2.86,13.51-2.86,13.51L90.18,29.6l-7.37,6.81-6.67,1.22-1.9-3.72Z" fill="none"/></clipPath></g></g></g><g><g><path d="M68.16,35.06c-1.76-.92-7.34-8.45-13.17-8.91s-10.11-7.91-10.11-10.92s3.3-2.5,4.11-1.68s4.38-.16,5.45,1.68s5.15.68,7.23,4.68c2.7,1.73,4-.41,5.43,5.14c2.54,1.13,2.94,2.05,3.3,4.25c1.86,0,2.25,3.82,1.6,5.73s-2.12.88-3.84.03Z" transform="translate(0-.04)" fill="#fff"/></g><g opacity="0.1"><g clip-path="url(#eqwXKC12Ryx190)"><g><g><g><g><g><path d="M68.16,35.06c-1.76-.92-7.34-8.45-13.17-8.91s-10.11-7.91-10.11-10.92s3.3-2.5,4.11-1.68s4.38-.16,5.45,1.68s5.15.68,7.23,4.68c2.7,1.73,4-.41,5.43,5.14c2.54,1.13,2.94,2.05,3.3,4.25c1.86,0,2.25,3.82,1.6,5.73s-2.12.88-3.84.03Z" transform="translate(0-.04)"/></g></g></g></g></g><clipPath id="eqwXKC12Ryx190" transform="translate(0-.04)"><path d="M73.25,31.1c0,0-2.31,4.69-5.12,1.52s-8.54-8-12.2-8.61-12.16-7.61-13-11.3s2.9,13.51,2.9,13.51L58.3,29.6l7.37,6.82l6.67,1.21l1.9-3.72Z" fill="none"/></clipPath></g></g></g><g><ellipse rx="7.27" ry="5.59" transform="translate(73.41 39.97)" fill="#ffc700"/></g><g opacity="0.1"><g clip-path="url(#eqwXKC12Ryx202)"><g><g><g><g><g><path d="M46.13,37.05c-2.128143,1.411795-3.440124,3.767398-3.52,6.32-.35,4.58.81,7.9,4,9.8c2.84,1.71-2,1.6-2,1.6s7.61,3.33,11.27,1.87s1,.91,1,.91s5.1-.23,8.27-3.3s6-3,9.5-3.15s11.6,3.81,15.07,4.81c1.25.37-.73-1.26-.8-1.57s4.55,2.57,9.31,1.57c1.37,0-1.18-1-1.18-1s7.48-.75,8.89-5.67s1.26-11.4-3.25-14-27.16-2.6-27.16-2.6Z" transform="translate(0-.04)"/></g></g></g></g></g><clipPath id="eqwXKC12Ryx202" transform="translate(0-.04)"><path d="M40.45,41.8c0,0,5.45,9,10.55,8.87s8.26-1.19,10.1-.8s6.12-4,13.86-3s14.79,4,18.59,3.84s11.1-.18,14.63-6.55-2.49,13.75-2.49,13.75L86.88,59L73.42,55.3l-15.65,5-17.32-5Z" fill="none"/></clipPath></g></g></g></g><g><g><ellipse rx="19" ry="5" transform="translate(30.79 94.95)" fill="#c93e3d"/></g><g><rect width="38" height="22.1" rx="0" ry="0" transform="translate(11.79 72.86)" fill="#c93e3d"/></g><g><ellipse rx="19" ry="5" transform="translate(30.79 72.86)" fill="#ba4444"/></g><g clip-path="url(#eqwXKC12Ryx221)"><g><g><g><g><g><g><path d="M30.85,97.49C14,97.49,9.41,92.7,9.11,91.74l1.18-.29c0,0,3.86,5,20.56,5s20.56-4.94,20.63-5s1.34,0,1.34,0c-.42,1.01-4.04,6.04-21.97,6.04Z" transform="translate(0-.04)" fill="#f2cb30"/></g><g><path d="M30.85,80.49C14,80.49,9.41,75.7,9.11,74.74l1.18-.29c0,0,3.86,5,20.56,5s20.56-4.94,20.63-5s1.34,0,1.34,0c-.42,1.01-4.04,6.04-21.97,6.04Z" transform="translate(0-.04)" fill="#f2cb30"/></g></g></g></g></g></g><clipPath id="eqwXKC12Ryx221" transform="translate(0-.04)"><rect width="38" height="40" rx="0" ry="0" transform="translate(11.79 60)" fill="none"/></clipPath></g><g><rect width="7.07" height="7.07" rx="1" ry="1" transform="matrix(.707107-.707107 0.707107 0.707107 25.785543 87.908224)" fill="#f2cb30"/></g></g><g><path d="M20.17,68c-2.253343-.389346-4.374004-1.334535-6.17-2.75-2.21-2.1-2.26-4.35-2.66-5.67-.59-1.53-1.76-3.37-3.76-3.24s-3.18,2.36-1.86,5.66s7.69,7.7,14.75,7.46-.3-1.46-.3-1.46Z" transform="translate(0-.04)" fill="#ffd474"/><g clip-path="url(#eqwXKC12Ryx235)"><g><g><g><path d="M6.76,64c-.07-.43,3.33-.67,5.44-4.25c0,.34,1.19.65,1.11,1.3-.17,1.58-3.91,4.2-4.31,4.48s-2.17-1.06-2.24-1.53Z" transform="translate(0-.04)"/><path d="M6.74,55.73c2.52-1.29,4.49.91,4.25,1.6-.53,1.62-5.15,3.58-5.6,3.8s-1.78-3.28,1.35-5.4Z" transform="translate(0-.04)"/><path d="M9.6,68.32c-.25-.36,3.7-.73,4-4.86.16.3,1.19-.26,1.4.37.53,1.45-1.77,4-2.77,4.85-.23.49-2.38-.01-2.63-.36Z" transform="translate(0-.04)"/><path d="M13.62,70.54c-.3-.31,3.54-1.3,3.22-5.43.2.27,1.13-.44,1.44.15.75,1.35-1.14,4.18-2,5.23-.15.51-2.36.36-2.66.05Z" transform="translate(0-.04)"/></g></g></g><clipPath id="eqwXKC12Ryx235" transform="translate(0-.04)"><path d="M20.17,68c-2.253343-.389346-4.374004-1.334535-6.17-2.75-2.21-2.1-2.26-4.35-2.66-5.66-.59-1.54-1.75-3.38-3.76-3.25s-3.18,2.36-1.86,5.66s7.69,7.7,14.75,7.46-.3-1.46-.3-1.46Z" fill="none"/></clipPath></g><g><g><path d="M20.94,51.21L18.76,60c0,0-2.7,10.88,5,12.09c2.55.39,5.17,0,8.16,0c4.54,0,5.37.83,8.94-.18l.48-.15c3.68-1.2,4.37-4.83,4.23-11c0-1.87-2.62-9.57-2.62-9.57Z" transform="translate(0-.04)" fill="#ffd474"/></g></g><g><path d="M31.33,57.73c4.482396.071265,8.061222,3.757455,8,8.24v0c0,4.55-3.58,5.12-8,5.12s-8-.57-8-5.12c-.061222-4.482545,3.517604-8.168735,8-8.24Z" transform="translate(0-.04)" fill="#fff"/></g><g><path d="M38.24,58.72c-3.46,2.66-3.56,4.49-2.37,5.46s6.29-1.69,6.29-1.69-2-5.25-3.92-3.77Z" transform="translate(0-.04)" fill="#ffd474"/></g><g><path d="M25.9,58.72c3.46,2.66,3.55,4.49,2.37,5.46s-6.27-1.69-6.27-1.69s2-5.25,3.9-3.77Z" transform="translate(0-.04)" fill="#ffd474"/></g><g clip-path="url(#eqwXKC12Ryx254)"><g><g><g><path d="M47.75,61.14c-1.613383.362465-3.168352.948102-4.62,1.74-1.074439.692081-2.238586,1.233779-3.46,1.61s5.58.25,7.91-.91Z" transform="translate(0-.04)"/><path d="M14.76,61.14c1.614716.357997,3.170297.943865,4.62,1.74c1.076453.688421,2.240088,1.229881,3.46,1.61s-5.57.24-7.91-.92Z" transform="translate(0-.04)"/><path d="M48.75,65.58c-1.613783.365997-3.168722.954989-4.62,1.75-1.076453.688421-2.240088,1.229881-3.46,1.61s5.58.24,7.91-.92Z" transform="translate(0-.04)"/><path d="M13.76,65.58c1.613783.365997,3.168722.954989,4.62,1.75c1.076453.688421,2.240088,1.229881,3.46,1.61s-5.57.24-7.91-.92Z" transform="translate(0-.04)"/></g></g></g><clipPath id="eqwXKC12Ryx254" transform="translate(0-.04)"><path d="M20.94,51.21L18.76,60c0,0-2.7,10.88,5,12.09c2.55.39,5.17,0,8.16,0c4.54,0,5.37.83,8.94-.18l.48-.15c3.68-1.2,4.37-4.83,4.23-11c0-1.87-2.62-9.57-2.62-9.57Z" fill="none"/></clipPath></g><g id="eqwXKC12Ryx256_tr" transform="translate(30.965,56.293572) rotate(0)"><g transform="translate(-30.965,-56.29357)"><g><path d="M48.16,19.28c3.777628,0,6.84,3.062372,6.84,6.84s-3.062372,6.84-6.84,6.84-6.84-3.062372-6.84-6.84c0-1.814081.720641-3.553862,2.00339-4.83661s3.022529-2.00339,4.83661-2.00339Z" transform="translate(0-.04)" fill="#f4a6a5"/><path d="M14.28,19.28c-3.777628,0-6.84,3.062372-6.84,6.84s3.062372,6.84,6.84,6.84s6.84-3.062372,6.84-6.84c0-1.814081-.720641-3.553862-2.00339-4.83661s-3.022529-2.00339-4.83661-2.00339Z" transform="translate(0-.04)" fill="#f4a6a5"/><path d="M43.2,30.83c-1.881584-1.977042-2.407758-4.883434-1.338728-7.394655s3.528626-4.146568,6.257885-4.160769s5.20574,1.595464,6.300843,4.095424c-2.289542-2.405696-5.976309-2.819163-8.741863-.98039s-3.810676,5.398398-2.478137,8.44039Z" transform="translate(0-.04)" fill="#ffd474"/><path d="M19.24,30.83c2.555777-2.685548,2.502519-6.919587-.12-9.54-1.279081-1.289893-3.023477-2.010717-4.84-2-2.71728-.005967-5.181192,1.594791-6.28,4.08c2.289542-2.405696,5.976309-2.819163,8.741863-.98039s3.810676,5.398398,2.478137,8.44039Z" transform="translate(0-.04)" fill="#ffd474"/></g><path d="M31.22,20.26c11.871836.005518,21.494482,9.628164,21.5,21.5c0,11.87-9,17.93-20.85,17.93s-22.15-6.06-22.15-17.93c.005518-11.871836,9.628164-21.494482,21.5-21.5Z" transform="translate(0-.04)" fill="#ffd474"/><path d="M16.82,47.9C16.9,46.08,15.66,33,30.94,33s14.76,12.8,14.67,15.44-1.54,8.8-13.66,8.8-15.26-6.31-15.13-9.34Z" transform="translate(0-.04)" fill="#a3d8f2"/><g><g><g><path d="M14,50.34c-.190894.026414-.370098-.09812-.411904-.286244s.067789-.376835.251904-.433756c1.345445-.622616,2.843613-.83813,4.31-.62.192616.030775.328259.205797.31.4v0c-.047634.190622-.223805.320654-.42.31-1.326793-.198113-2.682558-.003439-3.9.56h-.14Z" transform="translate(0-.04)" fill="#707070"/></g></g><g><g><path d="M48.51,50.28h-.15c-1.220315-.541709-2.571285-.718829-3.89-.51-.099477.017402-.201789-.005508-.284345-.063672s-.138563-.146797-.155655-.246328c-.029868-.201458.108686-.389176.31-.42c1.460539-.237454,2.958636-.042806,4.31.56.182842.082198.270381.292293.2.48-.061396.130265-.196314.209629-.34.2Z" transform="translate(0-.04)" fill="#707070"/></g></g><g><g><path d="M14.75,53.16c-.09624.005509-.190491-.02892-.26052-.095164s-.109638-.158439-.10948-.254836v0c-.006567-.117145.046-.229787.14-.3c1.191288-.883348,2.610498-1.407311,4.09-1.51.204829-.012169.384055.136457.41.34.002958.201698-.141238.375582-.34.41-1.358903.078127-2.665549.550743-3.76,1.36-.051616.030571-.110053.047758-.17.05Z" transform="translate(0-.04)" fill="#707070"/></g></g><g><g><path d="M47.79,53.16c-.082527.004556-.164004-.020241-.23-.07-1.080399-.800211-2.368389-1.272358-3.71-1.36-.207545-.021064-.361764-.201721-.35-.41.005159-.095531.048132-.18508.11943-.248872s.165055-.096582.26057-.091128v0c1.487228.109498,2.914246.632507,4.12,1.51.131019.144756.131019.365244,0,.51-.069176.096376-.181393.152485-.3.15Z" transform="translate(0-.04)" fill="#707070"/></g></g></g><g><g><circle r="1.39" transform="translate(23.3 43.11)" fill="#4c545a"/></g></g><g><g><circle r="1.39" transform="translate(39.14 43.11)" fill="#4c545a"/></g></g><g><g><path d="M31.29,48.72c-.874906.520781-1.989064.398346-2.73-.3-.298234-.220914-.360914-.641766-.14-.94s.641766-.360914.94-.14v0l.09.08v0c.377506.331646.942494.331646,1.32,0c.167341-.160399.408332-.217778.63-.15.094746.027898.180798.079529.25.15.12.08.91.52,1.33.08.225693-.286413.638997-.339743.93-.12.277625.217716.330883.61715.12.9v0c-.748853.669551-1.819165.841426-2.74.44Z" transform="translate(0-.04)" fill="#4c545a"/></g></g><g><g clip-path="url(#eqwXKC12Ryx296)"><g><g><g><path d="M29.81,20.11c0,0-1.41,2.67,1,6.1.77-1.34,1.77-2.55,1-6.1Z" transform="translate(0-.04)"/><path d="M8.6,38.73c0,0,3.74-1.16,5.27-2.42c1.200756-.900007,2.519836-1.630212,3.92-2.17s-6.55.17-9.19,1.72Z" transform="translate(0-.04)"/><path d="M53.42,38.73c0,0-3.74-1.16-5.27-2.42-1.200756-.900007-2.519836-1.630212-3.92-2.17s6.55.17,9.19,1.72Z" transform="translate(0-.04)"/><path d="M7.11,44.29c0,0,3.74-1.15,5.27-2.42c1.205562-.89816,2.527678-1.628184,3.93-2.17s-6.56.17-9.2,1.72Z" transform="translate(0-.04)"/><path d="M54.91,44.29c0,0-3.75-1.15-5.28-2.42-1.200756-.900007-2.519836-1.630212-3.92-2.17s6.55.17,9.2,1.72Z" transform="translate(0-.04)"/></g></g></g><clipPath id="eqwXKC12Ryx296" transform="translate(0-.04)"><circle r="21.5" transform="translate(31.22 41.76)" fill="none"/></clipPath></g><circle r="2.5" transform="translate(23.22 26.72)"/><circle r="2.5" transform="translate(39.22 26.72)"/><circle r="1" transform="translate(23.72 26.22)" fill="#fff"/><circle r="1" transform="translate(38.72 26.22)" fill="#fff"/><path d="M30.74,35v-4.14c0,0-3.89-1.55-6,.84s-1.37,4.72,0,5.43s3.61.81,4.73-.61c.391148-.532713.815313-1.040376,1.27-1.52Z" transform="translate(0-.04)" fill="#fff4dd"/><path d="M30.74,35v-4.14c0,0,3.89-1.55,6,.84s1.37,4.72,0,5.43-3.6.81-4.73-.61c-.391148-.532713-.815313-1.040376-1.27-1.52Z" transform="translate(0-.04)" fill="#fff4dd"/><circle r="0.49" transform="translate(24.87 35.37)" fill="#333"/><circle r="0.49" transform="translate(36.6 35.37)" fill="#333"/><circle r="0.49" transform="translate(25.52 33.42)" fill="#333"/><circle r="0.49" transform="translate(35.29 33.42)" fill="#333"/><circle r="0.49" transform="translate(26.82 36.02)" fill="#333"/><circle r="0.49" transform="translate(33.99 36.02)" fill="#333"/><path d="M30.7,31.77c-.58,0-2.32-1.07-2.31-3.52c1.36917-.81001,3.07083-.81001,4.44,0c0,.93-.57,3.52-2.13,3.52Z" transform="translate(0-.04)" fill="#333"/></g></g></g></g><g id="eqwXKC12Ryx311_to" transform="translate(30.43,22.1)"><g id="eqwXKC12Ryx311_tr" transform="rotate(0)"><g transform="translate(-30.43,-22.1)"><g><path d="M30.08,14c4.85,0,8.78,3.4,8.78,7.57c0,2.08-3.64,2-8.49,2s-9.07.21-9.08-2C21.3,17.38,25.23,14,30.08,14Z" transform="translate(0-.04)" fill="#c93e3d"/></g><g clip-path="url(#eqwXKC12Ryx324)"><g><g><g><g><g><g><path d="M29.1,13h2.6c0,0,2.42,7.45,1.12,11.3h-5.07c-.503687-3.820284-.039478-7.705891,1.35-11.3Z" transform="translate(0-.04)" fill="#fec72e"/></g><g><path d="M20.52,20.68c0,0-1,1.62,9.59,1.41s10.16-1.45,10.16-1.45v3h-19.76Z" transform="translate(0-.04)" fill="#fec72e"/></g></g></g></g></g></g><clipPath id="eqwXKC12Ryx324" transform="translate(0-.04)"><path d="M30.08,14c4.85,0,8.78,3.4,8.78,7.57c0,2.08-3.93,2.09-8.78,2.09s-8.78.11-8.79-2.09C21.3,17.38,25.23,14,30.08,14Z" fill="none"/></clipPath></g><g><circle r="1.21" transform="translate(30.43 13.23)" fill="#fec72e"/></g></g></g></g></g></svg>